<?xml version="1.0" encoding="utf-8"?>
<!-- Generator: Adobe Illustrator 27.5.0, SVG Export Plug-In . SVG Version: 6.00 Build 0)  -->
<svg version="1.1" xmlns="http://www.w3.org/2000/svg" xmlns:xlink="http://www.w3.org/1999/xlink" x="0px" y="0px"
	 viewBox="0 0 750 500" style="enable-background:new 0 0 750 500;" xml:space="preserve">
<g id="BACKGROUND">
	<rect style="opacity:0.29;fill:#85A1FD;" width="750" height="500"/>
</g>
<g id="OBJECTS">
	<g>
		<g>
			<defs>
				
					<rect id="SVGID_1_" x="125" y="-125" transform="matrix(-1.836970e-16 1 -1 -1.836970e-16 625 -125)" width="500" height="750"/>
			</defs>
			<clipPath id="SVGID_00000056406562241905867700000014666687857694362030_">
				<use xlink:href="#SVGID_1_"  style="overflow:visible;"/>
			</clipPath>
			<g style="opacity:0.5;clip-path:url(#SVGID_00000056406562241905867700000014666687857694362030_);">
				<path style="fill:#FFFFFF;" d="M28.509,500.866l1.26-1.279c3.136-5.397,9.963-16.28,21.41-30.404
					c16.595-20.478,56.923-48.516,56.923-48.516s-8.27,18.782-26.799,45.272c-16.399,23.444-45.746,34.676-52.28,36.95
					c17.257,2.244,33.889,3.597,49.854,4.2l2.48-2.004c3.312-4.395,9.941-12.584,20.423-22.882
					c15.882-15.603,52.402-35.285,52.402-35.285s-8.733,14.974-26.811,35.437c-13.352,15.114-33.459,22.227-43.065,24.916
					c17.251,0.475,33.705,0.088,49.308-0.971l0.175-0.297c0.136,0.08,0.316,0.17,0.475,0.256c7.778-0.538,15.334-1.246,22.681-2.09
					l-0.437-0.366c0.052-0.062,0.861-1.029,2.203-2.643c2.221-5.401,7.431-16.992,16.935-32.562
					c13.343-21.859,48.409-53.938,48.409-53.938s-5.606,19.2-20.063,47.117c-11.985,23.143-36.109,37.294-44.013,41.461
					c-0.2,0.241-0.373,0.448-0.54,0.648c24.531-2.945,46.576-7.452,65.908-12.59c0.385-0.475,0.96-1.184,1.679-2.073
					c2.257-5.467,7.459-16.99,16.873-32.41c13.343-21.859,48.409-53.938,48.409-53.938s-5.606,19.2-20.063,47.117
					c-10.581,20.432-30.622,33.853-40.615,39.587c9.633-2.708,18.555-5.552,26.699-8.412c22.311-7.833,40.88-16.392,55.38-24.03
					l0.673-1.164c-3.009-21.213,15.283-45.419,22.525-50.527c7.445-5.251,24.012-26.275,24.012-26.275
					c-4.278,24.537-33.205,64.585-42.997,75.708c15.214-8.27,25.346-15.188,29.935-18.503l-0.245-0.384l0.449-0.286
					c-2.497-6.804,24.083-34.754,87.547-53.544c0,0-16.561,11.924-29.037,26.953c-12.476,15.029-42.163,27.543-55.288,28.134
					c-0.25,0.011-0.459-0.014-0.682-0.027c-5.658,4.197-27.062,19.255-61.99,34.511c0.105,0.008,0.198,0.016,0.307,0.023
					c11.374-2.45,36.041-7.502,48.563-8.065c16.603-0.747,50.728,7.885,50.728,7.885l-38.871,9.143
					c-35.923,2.818-59.446-4.979-65.087-7.11c-5.313,2.249-10.926,4.491-16.817,6.695c6.754,0.787,25.224,3.711,38.642,13.132
					c16.702,11.726,40.147,39.786,40.147,39.786c-51.819-14.464-74.202-42.464-79.891-50.788l-1.659-1.098
					c-1.8,0.66-3.626,1.315-5.478,1.966c-9.767,3.432-20.643,6.842-32.53,10.022c-0.043,0.053-0.104,0.128-0.13,0.159l-0.114-0.093
					c-5.912,1.578-12.084,3.095-18.498,4.53c7.461,0.268,25.105,1.746,38.7,9.564c17.691,10.174,43.57,36.006,43.57,36.006
					c-52.914-9.736-77.729-35.606-84.144-43.382l-2.282-1.231l0.026-0.048c-15.741,3.375-32.903,6.226-51.411,8.171
					c16.798,1.726,43.195,8.26,73.425,29.695c0,0-36.562-0.52-56.192-6.098c-15.125-4.298-28.547-15.977-33.916-21.115
					c-0.723-0.314-1.376-0.612-1.93-0.887c-13.381,0.908-27.372,1.336-41.963,1.142l0.148,0.098
					c9.651,1.547,44.732,9.802,80.017,50.939c0,0-35.344-9.374-53.035-19.548c-14.212-8.173-24.683-23.684-28.254-29.471
					l-1.974-1.298l0.508-0.772c-3.16-0.057-6.348-0.145-9.563-0.261l-0.118,0.096l-0.084-0.104
					c-15.218-0.556-31.03-1.776-47.42-3.81c9.589,2.656,36.319,11.52,53.176,31.523c20.833,24.719,30.756,42.682,30.756,42.682
					s-42.682-24.304-61.049-43.209c-12.871-13.248-20.679-23.575-24.209-28.582l-2.978-2.432l0.405-0.496
					c-8.639-1.133-17.415-2.463-26.361-4.063c-0.37-0.066-0.667-0.302-0.824-0.613c-0.109-0.215-0.152-0.466-0.106-0.723
					c0.112-0.626,0.71-1.043,1.336-0.93c8.76,1.566,17.357,2.873,25.822,3.99c0.188-0.354,0.479-0.886,0.853-1.554L28.509,500.866z"
					/>
			</g>
			<g style="opacity:0.5;clip-path:url(#SVGID_00000056406562241905867700000014666687857694362030_);">
				<path style="fill:#FFFFFF;" d="M46.171,494.362l1.111-1.478c5.021-4.018,15.07-12.633,27.718-26.449
					c18.337-20.031,40.761-65.397,40.761-65.397s-17.879,11.289-42.046,34.207c-21.39,20.283-28.363,51.898-29.684,58.903
					c-4.917-17.242-8.83-33.983-11.878-50.16l1.665-2.832c3.974-4.044,11.308-12.047,20.203-24.298
					c13.478-18.561,27.969-58.774,27.969-58.774s-13.927,11.181-32.023,32.721c-13.366,15.909-17.549,37.481-18.825,47.68
					c-3.113-17.506-5.226-34.331-6.525-50.392l0.276-0.223c-0.102-0.126-0.222-0.297-0.333-0.445
					c-0.637-8.007-1.068-15.814-1.327-23.43l0.439,0.39c0.055-0.062,0.917-1.034,2.357-2.648
					c5.165-3.086,16.182-10.161,30.599-22.218c20.24-16.927,47.583-57.547,47.583-57.547s-18.71,8.639-44.953,27.624
					c-21.756,15.739-32.499,42.477-35.54,51.167c-0.215,0.241-0.399,0.448-0.578,0.649c-0.738-25.445,0.495-48.595,2.785-69.077
					c0.425-0.465,1.06-1.158,1.856-2.027c5.227-3.132,16.175-10.19,30.454-22.132c20.24-16.927,47.583-57.547,47.583-57.547
					s-18.71,8.639-44.953,27.624c-19.207,13.895-29.828,36.362-34.148,47.419c1.291-10.228,2.83-19.753,4.503-28.488
					c4.582-23.928,10.473-44.154,16.046-60.093l1.084-0.863c22.074-0.167,43.952-22.495,48.052-30.652
					c4.216-8.386,23.114-28.472,23.114-28.472c-24.351,8.098-60.75,43.678-70.592,55.35c6.108-16.763,11.613-28.141,14.292-33.323
					l0.428,0.191l0.223-0.501c7.314,1.508,31.743-29.836,41.218-97.368c0,0-9.627,18.692-23.039,33.695
					c-13.412,15.003-21.64,47.16-20.241,60.624c0.027,0.256,0.084,0.466,0.132,0.691c-3.414,6.405-15.496,30.51-25.719,68.425
					c-0.024-0.106-0.046-0.199-0.07-0.309c0.763-11.963,2.151-37.868,0.817-50.713c-1.769-17.032-15.765-50.489-15.765-50.489
					l-3.392,41.001c2.604,37.034,14.133,59.815,17.164,65.238c-1.482,5.757-2.911,11.818-4.259,18.156
					c-1.832-6.762-7.625-25.137-19.27-37.374c-14.494-15.232-46.66-34.846-46.66-34.846c22.636,50.598,54.578,69.138,63.927,73.667
					l1.372,1.523c-0.398,1.935-0.788,3.896-1.169,5.882c-2.009,10.476-3.826,22.078-5.255,34.675
					c-0.048,0.052-0.115,0.126-0.143,0.156l0.112,0.103c-0.707,6.265-1.312,12.784-1.796,19.539
					c-1.41-7.561-5.605-25.315-15.643-37.977c-13.063-16.477-43.329-38.909-43.329-38.909
					c17.984,52.434,48.127,73.777,57.028,79.129l1.602,2.138l0.045-0.033c-1.04,16.554-1.33,34.476-0.491,53.632
					c-4.319-16.853-15-42.756-41.448-70.292c0,0,6.102,37.176,14.777,56.329c6.684,14.757,20.631,26.654,26.685,31.342
					c0.43,0.688,0.833,1.309,1.198,1.832c1.115,13.774,2.81,28.095,5.231,42.933l-0.122-0.137
					c-3.047-9.598-16.805-44.086-64.099-73.772c0,0,14.938,34.585,28.002,51.061C1.758,421.61,19.159,429.915,25.6,432.672
					l1.623,1.814l0.709-0.635c0.54,3.211,1.115,6.447,1.723,9.704l-0.08,0.135l0.119,0.07c2.886,15.422,6.539,31.348,11.109,47.739
					c-4.167-9.366-17.274-35.252-40.225-49.381C-27.783,424.656-47.6,417.283-47.6,417.283s31.27,39.788,53.332,55.623
					c15.46,11.096,27.173,17.478,32.813,20.313l2.932,2.664l0.444-0.488c2.471,8.63,5.164,17.37,8.157,26.241
					c0.123,0.367,0.409,0.633,0.75,0.747c0.236,0.079,0.498,0.084,0.753-0.002c0.62-0.21,0.954-0.882,0.744-1.503
					c-2.931-8.688-5.572-17.249-8-25.704c0.332-0.246,0.83-0.623,1.453-1.106L46.171,494.362z"/>
			</g>
			<g style="clip-path:url(#SVGID_00000056406562241905867700000014666687857694362030_);">
				<g>
					<g>
						<path style="fill:#85A1FD;" d="M34.394,436.249c0,0-21.83-15.206-6.912-43.742c3.167-6.059,13.61-17.928,13.61-17.928
							s10.839,10.955,8.604,31.631C47.461,426.885,34.394,436.249,34.394,436.249z"/>
					</g>
					<g>
						<path style="fill:#85A1FD;" d="M65.056,391.301c0,0-11.409-22.874-2.105-39.655c9.304-16.781,21.812-21.413,21.812-21.413
							s4.983,18.938,1.753,33.939C83.287,379.173,65.056,391.301,65.056,391.301z"/>
					</g>
					<g>
						<path style="fill:#85A1FD;" d="M108.428,370.186c0,0-10.865-30.937,9.11-45.344c19.975-14.407,19.975-14.407,19.975-14.407
							s7.928,23.888-0.143,37.625C129.299,361.796,108.428,370.186,108.428,370.186z"/>
					</g>
					<g>
						<path style="fill:#85A1FD;" d="M91.072,419.2c-0.512-0.551,1.458-4.566,1.693-5.081c1.809-3.95,4.583-7.436,8.053-10.055
							c10.552-7.966,29.237-7.654,41.408-3.894c-1.478,4.409-4.301,10.117-7.075,13.962c-4.063,5.632-10.067,9.865-16.767,11.715
							C108.859,428.477,97.907,426.519,91.072,419.2z"/>
					</g>
					<g>
						<path style="fill:#85A1FD;" d="M56.614,471.483c0,0-4.138-17.775,19.195-25.792c0,0,11.305-3.343,24.877-0.278
							c0,0-2.09,18.127-13.029,23.969C76.719,475.224,56.614,471.483,56.614,471.483z"/>
					</g>
					<g>
						<path style="fill:#85A1FD;" d="M73.017,494.2c0,0,15.445-12.017,29.649-4.297c14.204,7.721,21.339,20.512,21.339,20.512
							s-24.629,8.415-35.458,2.289C75.573,505.365,73.017,494.2,73.017,494.2z"/>
					</g>
					<g>
						<path style="fill:#85A1FD;" d="M-7.435,440.966c0,0-17.485-15.66-8.106-33.222c9.379-17.562,14.353-22.303,14.353-22.303
							s11.569,18.043,10.52,29.177C7.317,436.004-7.435,440.966-7.435,440.966z"/>
					</g>
					<g>
						<g style="opacity:0.15;">
							<path style="fill:#2D3B56;" d="M34.394,436.249c0,0-21.83-15.206-6.912-43.742c3.167-6.059,13.61-17.928,13.61-17.928
								L34.394,436.249z"/>
						</g>
						<g style="opacity:0.15;">
							<path style="fill:#2D3B56;" d="M65.056,391.301c0,0-11.409-22.874-2.105-39.655c9.304-16.781,21.812-21.413,21.812-21.413
								L65.056,391.301z"/>
						</g>
						<g style="opacity:0.15;">
							<path style="fill:#2D3B56;" d="M108.428,370.186c0,0-10.865-30.937,9.11-45.344c19.975-14.407,19.975-14.407,19.975-14.407
								L108.428,370.186z"/>
						</g>
						<g style="opacity:0.15;">
							<path style="fill:#2D3B56;" d="M142.226,400.169c-1.478,4.409-4.301,10.117-7.075,13.962
								c-4.063,5.632-10.067,9.865-16.767,11.715c-9.525,2.631-20.478,0.673-27.312-6.647L142.226,400.169z"/>
						</g>
						<g style="opacity:0.15;">
							<path style="fill:#2D3B56;" d="M100.686,445.414c0,0-2.09,18.127-13.029,23.969c-10.938,5.842-31.043,2.101-31.043,2.101
								L100.686,445.414z"/>
						</g>
						<g style="opacity:0.15;">
							<path style="fill:#2D3B56;" d="M124.004,510.415c0,0-24.629,8.415-35.458,2.289c-12.973-7.34-15.53-18.504-15.53-18.504
								L124.004,510.415z"/>
						</g>
						<g style="opacity:0.15;">
							<path style="fill:#2D3B56;" d="M-7.435,440.966c0,0-17.485-15.66-8.106-33.222c9.379-17.562,14.353-22.303,14.353-22.303
								L-7.435,440.966z"/>
						</g>
					</g>
				</g>
				<g>
					<g>
						<path style="fill:#2D3B56;" d="M-26.635,495.985c-0.303,0-0.588-0.185-0.702-0.484c-0.146-0.388,0.049-0.82,0.437-0.967
							c0.243-0.092,24.646-9.473,55.696-34.143c28.651-22.764,68.984-63.576,98.42-128.729c0.17-0.377,0.615-0.543,0.992-0.375
							c0.377,0.171,0.545,0.615,0.375,0.992C99.01,397.736,58.474,438.738,29.675,461.608c-31.223,24.797-55.8,34.236-56.045,34.328
							C-26.457,495.969-26.546,495.985-26.635,495.985z"/>
					</g>
					<g>
						<path style="fill:#2D3B56;" d="M66.245,426.505c-0.35,0-0.662-0.245-0.734-0.602c-8.843-43.724,13.721-82.805,13.95-83.194
							c0.21-0.357,0.67-0.476,1.026-0.267c0.357,0.21,0.477,0.669,0.267,1.026c-0.226,0.385-22.499,38.99-13.772,82.138
							c0.082,0.405-0.181,0.802-0.587,0.884C66.344,426.5,66.294,426.505,66.245,426.505z"/>
					</g>
					<g>
						<path style="fill:#2D3B56;" d="M70.08,423.174c-0.396,0-0.728-0.311-0.749-0.711c-0.021-0.414,0.296-0.767,0.71-0.788
							c0.273-0.015,27.739-1.587,60.16-15.939c0.378-0.17,0.822,0.002,0.99,0.382c0.167,0.379-0.004,0.822-0.382,0.989
							c-32.688,14.472-60.414,16.052-60.69,16.066C70.106,423.174,70.093,423.174,70.08,423.174z"/>
					</g>
					<g>
						<path style="fill:#2D3B56;" d="M37.257,455.149c-0.32,0-0.617-0.206-0.716-0.528c-2.661-8.598-3.189-21.833-1.571-39.338
							c1.202-13.001,3.208-23.634,3.228-23.739c0.077-0.408,0.467-0.682,0.877-0.597c0.407,0.077,0.674,0.47,0.597,0.876
							c-0.08,0.421-7.913,42.265-1.697,62.354c0.122,0.396-0.099,0.815-0.495,0.938C37.405,455.138,37.331,455.149,37.257,455.149z"
							/>
					</g>
					<g>
						<path style="fill:#2D3B56;" d="M-3.575,483.992c-0.317,0-0.612-0.203-0.714-0.521c-8.515-26.574,0.927-81.937,1.024-82.492
							c0.07-0.409,0.453-0.677,0.867-0.611c0.408,0.071,0.682,0.459,0.611,0.867c-0.096,0.553-9.476,55.555-1.073,81.779
							c0.126,0.395-0.091,0.816-0.485,0.942C-3.422,483.981-3.499,483.992-3.575,483.992z"/>
					</g>
					<g>
						<path style="fill:#2D3B56;" d="M107.847,504.395c-0.065,0-0.131-0.009-0.197-0.026L8.114,477.303
							c-0.4-0.108-0.636-0.521-0.527-0.921c0.109-0.399,0.522-0.632,0.92-0.526l99.536,27.065c0.4,0.108,0.636,0.521,0.527,0.921
							C108.479,504.175,108.177,504.395,107.847,504.395z"/>
					</g>
					<g>
						<path style="fill:#2D3B56;" d="M40.001,485.341c-0.195,0-0.39-0.076-0.538-0.227c-0.289-0.297-0.282-0.771,0.015-1.061
							c16.385-15.951,52.184-33.324,52.544-33.498c0.374-0.182,0.821-0.022,1.001,0.35c0.18,0.373,0.024,0.821-0.349,1.002
							c-0.357,0.172-35.939,17.44-52.15,33.221C40.379,485.271,40.19,485.341,40.001,485.341z"/>
					</g>
				</g>
				<g>
					<path style="fill:#2D3B56;" d="M115.326,358.31c-0.121,0-0.241-0.029-0.351-0.087c-0.227-0.12-0.376-0.349-0.396-0.604
						l-0.752-9.558c-0.033-0.413,0.276-0.773,0.689-0.807c0.394-0.026,0.773,0.275,0.806,0.689l0.66,8.38l8.38-4.772
						c0.359-0.207,0.817-0.081,1.023,0.28c0.205,0.36,0.079,0.817-0.281,1.022l-9.407,5.357
						C115.582,358.277,115.454,358.31,115.326,358.31z"/>
				</g>
				<g>
					<path style="fill:#2D3B56;" d="M121.978,344.838c-0.118,0-0.235-0.027-0.343-0.083c-0.227-0.116-0.378-0.34-0.403-0.594
						l-0.83-8.454c-0.041-0.412,0.261-0.779,0.673-0.819c0.407-0.055,0.779,0.26,0.82,0.673l0.716,7.298l7.084-4.078
						c0.358-0.204,0.817-0.083,1.024,0.276c0.207,0.358,0.084,0.817-0.276,1.024l-8.09,4.657
						C122.236,344.805,122.107,344.838,121.978,344.838z"/>
				</g>
				<g>
					<path style="fill:#2D3B56;" d="M72.636,359.42c-0.104,0-0.208-0.021-0.305-0.065c-0.25-0.11-0.418-0.349-0.442-0.62
						l-1.048-12.112c-0.036-0.412,0.27-0.776,0.683-0.811c0.404-0.042,0.776,0.27,0.812,0.683l0.931,10.763l7.952-5.993
						c0.331-0.252,0.801-0.185,1.051,0.147c0.249,0.33,0.183,0.801-0.148,1.05l-9.034,6.809
						C72.955,359.368,72.797,359.42,72.636,359.42z"/>
				</g>
				<g>
					<path style="fill:#2D3B56;" d="M67.418,377.27c-0.064,0-0.128-0.008-0.191-0.024c-0.251-0.066-0.45-0.258-0.526-0.506
						l-3.218-10.523c-0.121-0.396,0.102-0.815,0.498-0.936c0.393-0.123,0.815,0.102,0.937,0.497l2.864,9.366l6.59-6.244
						c0.3-0.285,0.775-0.273,1.06,0.028c0.285,0.301,0.272,0.775-0.029,1.06l-7.469,7.077
						C67.793,377.198,67.608,377.27,67.418,377.27z"/>
				</g>
				<g>
					<path style="fill:#2D3B56;" d="M36.667,406.784c-0.031,0-0.062-0.002-0.093-0.006c-0.275-0.034-0.51-0.218-0.608-0.478
						l-3.341-8.79c-0.147-0.388,0.047-0.82,0.435-0.968c0.387-0.147,0.821,0.047,0.968,0.435l2.837,7.466l4.472-6.387
						c0.237-0.341,0.706-0.422,1.044-0.185c0.339,0.237,0.422,0.705,0.184,1.044l-5.284,7.548
						C37.14,406.666,36.91,406.784,36.667,406.784z"/>
				</g>
				<g>
					<path style="fill:#2D3B56;" d="M34.873,425.508c-0.001,0-0.001,0-0.002,0c-0.249-0.001-0.48-0.124-0.619-0.33l-5.739-8.483
						c-0.232-0.343-0.142-0.809,0.201-1.041c0.342-0.231,0.809-0.143,1.042,0.201l5.122,7.57l5.381-7.855
						c0.233-0.342,0.702-0.43,1.042-0.195c0.342,0.234,0.429,0.701,0.195,1.043l-6.004,8.765
						C35.352,425.386,35.12,425.508,34.873,425.508z"/>
				</g>
				<g>
					<path style="fill:#2D3B56;" d="M89.305,460.074c-0.087,0-0.175-0.015-0.262-0.047l-7.873-2.931
						c-0.209-0.078-0.373-0.245-0.446-0.456c-0.074-0.21-0.05-0.442,0.065-0.634l4.485-7.446c0.214-0.357,0.677-0.47,1.029-0.256
						c0.355,0.214,0.469,0.675,0.256,1.029l-4.019,6.672l7.025,2.615c0.388,0.145,0.585,0.576,0.441,0.965
						C89.896,459.888,89.609,460.074,89.305,460.074z"/>
				</g>
				<g>
					<path style="fill:#2D3B56;" d="M76.884,467.753c-0.054,0-0.109-0.006-0.165-0.018l-10.292-2.31
						c-0.218-0.049-0.403-0.192-0.504-0.392c-0.102-0.199-0.108-0.434-0.019-0.639l4.538-10.451c0.165-0.38,0.605-0.556,0.987-0.389
						c0.38,0.164,0.554,0.606,0.389,0.986l-4.177,9.619l9.407,2.111c0.404,0.091,0.658,0.491,0.568,0.896
						C77.537,467.516,77.228,467.753,76.884,467.753z"/>
				</g>
				<g>
					<path style="fill:#2D3B56;" d="M100.047,507.72c-0.294,0-0.573-0.174-0.693-0.463l-2.573-6.201
						c-0.156-0.377,0.018-0.811,0.392-0.974l6.538-2.865c0.381-0.166,0.822,0.007,0.988,0.386c0.166,0.379-0.007,0.821-0.386,0.987
						l-5.865,2.57l2.291,5.522c0.159,0.382-0.023,0.821-0.405,0.98C100.24,507.702,100.143,507.72,100.047,507.72z"/>
				</g>
				<g>
					<path style="fill:#2D3B56;" d="M88.607,505.963c-0.267,0-0.525-0.143-0.661-0.395l-4.342-8.067
						c-0.194-0.36-0.063-0.811,0.295-1.011l9.069-5.064c0.362-0.199,0.818-0.072,1.021,0.29c0.202,0.361,0.073,0.818-0.289,1.021
						l-8.425,4.704l3.993,7.417c0.196,0.364,0.06,0.819-0.305,1.016C88.849,505.935,88.727,505.963,88.607,505.963z"/>
				</g>
				<g>
					<path style="fill:#2D3B56;" d="M-4.407,414.187c-0.023,0-0.045-0.001-0.067-0.003c-0.262-0.023-0.492-0.183-0.607-0.419
						l-4.151-8.529c-0.181-0.372-0.026-0.821,0.346-1.003c0.371-0.179,0.821-0.026,1.002,0.347l3.608,7.411l4.347-5.926
						c0.246-0.335,0.716-0.407,1.048-0.161c0.334,0.245,0.406,0.714,0.162,1.048l-5.082,6.929
						C-3.944,414.074-4.169,414.187-4.407,414.187z"/>
				</g>
				<g>
					<path style="fill:#2D3B56;" d="M-6.259,431.481c-0.028,0-0.056-0.002-0.083-0.005c-0.254-0.028-0.476-0.185-0.589-0.414
						l-4.851-9.846c-0.183-0.371-0.03-0.82,0.341-1.004c0.372-0.184,0.821-0.03,1.004,0.342l4.333,8.794l5.334-6.582
						c0.26-0.321,0.734-0.371,1.055-0.11c0.322,0.261,0.371,0.733,0.11,1.056l-6.072,7.492
						C-5.819,431.38-6.034,431.481-6.259,431.481z"/>
				</g>
				<g>
					<path style="fill:#2D3B56;" d="M127.855,414.481c-0.104,0-0.21-0.022-0.311-0.067l-7.477-3.406
						c-0.193-0.088-0.341-0.255-0.404-0.458c-0.064-0.203-0.039-0.423,0.07-0.606l4.315-7.297c0.211-0.356,0.671-0.476,1.027-0.264
						c0.356,0.211,0.475,0.671,0.264,1.027l-3.89,6.578l6.717,3.061c0.377,0.172,0.543,0.616,0.372,0.993
						C128.412,414.318,128.14,414.481,127.855,414.481z"/>
				</g>
				<g>
					<path style="fill:#2D3B56;" d="M114.436,420.216c-0.103,0-0.207-0.021-0.307-0.065l-8.82-3.962
						c-0.194-0.087-0.341-0.252-0.407-0.454c-0.065-0.202-0.041-0.422,0.064-0.607l5.378-9.296c0.207-0.358,0.667-0.48,1.025-0.273
						c0.358,0.208,0.481,0.666,0.274,1.025l-4.961,8.576l8.062,3.621c0.378,0.17,0.547,0.614,0.377,0.992
						C114.996,420.051,114.722,420.216,114.436,420.216z"/>
				</g>
			</g>
			<g style="clip-path:url(#SVGID_00000056406562241905867700000014666687857694362030_);">
				<path style="fill:#2D3B56;" d="M-15.141,351.147c0.286,6.624,2.526,13.151,6.367,18.555c0.621,0.873,1.284,1.715,1.951,2.553
					c-3.101,7.596-5.86,14.865-8.281,21.647c-0.086,0.241,0.04,0.505,0.28,0.591c0.234,0.083,0.505-0.039,0.591-0.28
					c2.377-6.659,5.08-13.787,8.113-21.234c1.033,0.087,2.066,0.168,3.101,0.2c6.627,0.201,13.301-1.553,18.973-4.987
					c1.699-1.029,3.508-2.645,3.183-4.604c-0.228-1.374-1.52-2.383-2.88-2.683c-1.36-0.301-2.799-0.104-4.128,0.313
					c-8.426,2.643-15.013,8.001-17.706,10.438c3.217-7.835,6.802-16.013,10.788-24.39c3.968,0.775,8.6,0.889,12.62-0.042
					c4.356-1.009,12.77-6.544,11.751-9.467c-1.344-3.852-8.645-1.831-14.947,1.68c-3.484,1.941-6.635,4.394-8.537,5.987
					c4.318-8.972,9.09-18.147,14.345-27.345c4.456,0.652,9.01,1.259,13.416,0.356c4.539-0.93,12.033-3.834,10.447-8.187
					c-0.604-1.658-3.633-1.469-5.396-1.384c-6.949,0.334-15.465,6.509-18.071,8.524c4.607-8.027,9.582-16.061,14.947-23.984
					c1.495,0.403,4.065,1.062,5.243,1.166c3.504,0.31,6.999,0.488,10.481,0.534c1.076,0.014,2.176,0.01,3.13-0.483
					c0.953-0.493,1.745-1.581,1.766-2.989c0.027-1.785-1.202-3.511-2.534-4.218c-1.332-0.707-2.739-0.632-4.087-0.524
					c-4.039,0.325-8.224,0.956-11.663,3.111c4.521-6.512,9.31-12.931,14.375-19.191c2.386,1.015,10.237,3.938,17.126,1.749
					c1.626-0.517,4.046-1.663,5.151-4.155c0.636-1.434-0.368-3.18-1.733-3.953c-1.365-0.773-3.025-0.8-4.585-0.638
					c-5.313,0.552-10.183,3.008-14.866,5.638c3.977-4.857,8.129-9.609,12.449-14.231c1.943-0.234,9.073-3.165,12.952-7.821
					c2.91-3.494,7.955-12.096-0.226-13.195c-1.258-0.169-2.511,0.264-3.707,0.691c-6.554,2.338-10.438,12.89-9.606,19.6
					c-4.613,4.931-9.028,10.012-13.251,15.207c0.802-3.042,2.313-10.395,0.434-17.28c-0.566-2.073-2.546-3.611-4.582-4.297
					c-1.721-0.58-3.89-0.266-4.924,1.227c-0.923,1.333-0.691,3.127-0.321,4.705c1.439,6.141,4.426,11.905,8.59,16.642
					c-5.539,6.873-10.753,13.931-15.641,21.093c0.191-4.529-0.317-10.531-1.354-14.348c-0.942-3.465-3.711-6.278-5.812-5.969
					c-3.552,0.521-3.295,4.995-2.934,6.136c2.718,8.605,7.682,13.49,9.409,14.991c-0.141,0.161-0.285,0.316-0.42,0.486
					c0,0,0.072,0.021,0.201,0.056c-5.304,7.849-10.228,15.805-14.791,23.754c0.177-3.164,0.711-15.763-1.692-20.665
					c-0.617-1.258-1.582-2.65-3.151-2.665c-1.562-0.015-2.777,1.39-3.267,2.742c-0.955,2.634-0.281,5.425,0.628,7.974
					c1.666,4.674,4.111,9.087,7.224,13.066c-5.27,9.208-10.057,18.394-14.388,27.378c0.278-2.446,0.599-6.54,0.274-10.63
					c-0.572-7.191-2.937-14.388-6.888-13.371c-2.998,0.772-2.94,10.843-1.365,15.027c1.484,3.945,4.23,7.816,7.143,10.709
					c-0.08,0.167-0.163,0.336-0.242,0.503c-0.063,0.058-0.107,0.099-0.107,0.099c0.018,0.004,0.037,0.007,0.054,0.011
					c-3.766,7.923-7.174,15.668-10.251,23.112c0.518-3.943,1.064-11.823-1.239-19.726c-0.39-1.337-1.024-2.644-2.028-3.609
					c-1.004-0.965-2.559-1.481-3.83-0.909C-14.884,346.761-15.226,349.163-15.141,351.147z"/>
			</g>
			<g style="clip-path:url(#SVGID_00000056406562241905867700000014666687857694362030_);">
				<path style="fill:#2D3B56;" d="M152.086,510.262c-6.528,1.158-13.386,0.388-19.494-2.189c-0.987-0.416-1.953-0.881-2.916-1.351
					c-6.742,4.676-13.239,8.946-19.335,12.781c-0.216,0.136-0.502,0.071-0.638-0.145c-0.132-0.211-0.071-0.501,0.145-0.638
					c5.985-3.766,12.356-7.95,18.968-12.527c-0.309-0.989-0.613-1.98-0.868-2.984c-1.635-6.425-1.37-13.321,0.751-19.603
					c0.635-1.882,1.821-3.999,3.804-4.106c1.391-0.075,2.656,0.966,3.244,2.229c0.589,1.262,0.709,2.71,0.59,4.098
					c-0.752,8.798-4.553,16.391-6.348,19.549c6.951-4.841,14.155-10.114,21.468-15.824c-1.617-3.706-2.734-8.202-2.697-12.328
					c0.04-4.471,3.617-13.885,6.691-13.525c4.052,0.476,3.663,8.042,1.603,14.955c-1.139,3.822-2.85,7.431-3.992,9.633
					c7.821-6.162,15.742-12.811,23.581-19.937c-1.603-4.209-3.184-8.522-3.258-13.02c-0.077-4.632,1.131-12.578,5.725-11.974
					c1.75,0.23,2.222,3.228,2.522,4.967c1.182,6.855-2.998,16.509-4.4,19.49c6.836-6.239,13.6-12.839,20.169-19.795
					c-0.718-1.372-1.918-3.737-2.276-4.865c-1.063-3.353-1.995-6.726-2.795-10.115c-0.247-1.047-0.482-2.122-0.207-3.16
					c0.274-1.038,1.165-2.046,2.535-2.372c1.737-0.413,3.689,0.411,4.668,1.559c0.979,1.147,1.212,2.537,1.398,3.876
					c0.559,4.013,0.852,8.236-0.507,12.06c5.376-5.827,10.603-11.894,15.614-18.197c-1.509-2.109-6.065-9.139-5.423-16.339
					c0.152-1.7,0.746-4.311,2.938-5.93c1.262-0.932,3.184-0.331,4.235,0.834c1.05,1.165,1.437,2.779,1.617,4.337
					c0.614,5.306-0.727,10.593-2.278,15.736c3.879-4.936,7.616-10.02,11.191-15.24c-0.193-1.947,1.121-9.544,4.824-14.34
					c2.779-3.599,10.081-10.39,12.93-2.642c0.438,1.191,0.287,2.508,0.13,3.768c-0.86,6.905-10.318,12.986-17.049,13.63
					c-3.812,5.573-7.814,10.986-11.969,16.235c2.796-1.443,9.645-4.513,16.774-4.173c2.146,0.102,4.077,1.702,5.189,3.54
					c0.94,1.554,1.103,3.74-0.13,5.073c-1.1,1.19-2.903,1.353-4.523,1.335c-6.307-0.072-12.582-1.737-18.11-4.774
					c-5.507,6.899-11.266,13.519-17.196,19.845c4.38-1.169,10.349-1.976,14.3-1.791c3.587,0.168,6.933,2.26,7.088,4.378
					c0.262,3.581-4.161,4.3-5.353,4.196c-8.99-0.786-14.835-4.572-16.675-5.932c-0.126,0.172-0.247,0.346-0.383,0.516
					c0,0-0.036-0.066-0.099-0.184c-6.511,6.881-13.209,13.414-19.978,19.593c3.05-0.86,15.233-4.115,20.54-2.832
					c1.362,0.329,2.93,0.97,3.285,2.498c0.354,1.521-0.754,3.012-1.968,3.784c-2.364,1.504-5.234,1.451-7.92,1.117
					c-4.924-0.613-9.762-2.041-14.322-4.217c-7.845,7.143-15.773,13.808-23.604,19.986c2.327-0.802,6.254-2.004,10.317-2.574
					c7.143-1.002,14.683-0.255,14.547,3.822c-0.103,3.094-9.947,5.223-14.373,4.593c-4.173-0.593-8.547-2.433-12.004-4.649
					c-0.146,0.114-0.292,0.232-0.438,0.345c-0.043,0.074-0.073,0.126-0.073,0.126c-0.008-0.016-0.015-0.034-0.022-0.051
					c-6.917,5.396-13.738,10.403-20.337,15.022c3.737-1.361,11.311-3.604,19.525-3.07c1.39,0.09,2.803,0.426,3.963,1.197
					c1.16,0.771,2.001,2.177,1.719,3.541C156.312,509.06,154.042,509.915,152.086,510.262z"/>
			</g>
			<g style="clip-path:url(#SVGID_00000056406562241905867700000014666687857694362030_);">
				<g>
					<path style="fill:#FFFFFF;" d="M34.46,141.611c0,0-64.478,41.368-35.503,99.122c0,0,24.731-6.326,32.46-44.698
						C38.166,162.53,34.46,141.611,34.46,141.611z"/>
				</g>
				<g>
					<path style="fill:#2D3B56;" d="M1.587,239.521c-0.048,0-0.098-0.005-0.147-0.017c-0.353-0.08-0.573-0.432-0.492-0.785
						c8.982-39.215,32.324-96.591,32.559-97.166c0.137-0.335,0.52-0.496,0.854-0.359c0.335,0.137,0.496,0.52,0.359,0.855
						c-0.234,0.574-23.537,57.853-32.495,96.963C2.156,239.315,1.886,239.521,1.587,239.521z"/>
				</g>
				<g>
					<path style="fill:#2D3B56;" d="M19.079,181.896c-0.074,0-0.147-0.012-0.219-0.038c-0.188-0.066-0.335-0.215-0.401-0.403
						l-6.571-19.005c-0.118-0.342,0.064-0.715,0.405-0.834c0.345-0.118,0.715,0.064,0.834,0.405l6.302,18.229l14.009-8.731
						c0.306-0.192,0.711-0.098,0.903,0.21c0.191,0.307,0.098,0.711-0.209,0.903l-14.707,9.166
						C19.32,181.863,19.2,181.896,19.079,181.896z"/>
				</g>
				<g>
					<path style="fill:#2D3B56;" d="M24.639,167.765c-0.074,0-0.148-0.012-0.22-0.038c-0.188-0.067-0.334-0.215-0.399-0.403
						l-4.471-12.943c-0.118-0.342,0.063-0.715,0.406-0.833c0.341-0.12,0.715,0.063,0.833,0.406l4.203,12.169l9.681-5.976
						c0.308-0.19,0.711-0.095,0.902,0.213c0.19,0.308,0.095,0.712-0.213,0.902l-10.378,6.406
						C24.879,167.732,24.759,167.765,24.639,167.765z"/>
				</g>
				<g>
					<path style="fill:#2D3B56;" d="M13.109,197.661c-0.077,0-0.154-0.013-0.227-0.041c-0.175-0.065-0.314-0.201-0.382-0.374
						l-9.298-23.561c-0.133-0.337,0.033-0.718,0.369-0.851c0.337-0.132,0.717,0.032,0.851,0.369l9.029,22.881l18.738-9.895
						c0.32-0.171,0.716-0.047,0.886,0.273c0.169,0.32,0.046,0.717-0.274,0.886l-19.385,10.236
						C13.32,197.635,13.215,197.661,13.109,197.661z"/>
				</g>
				<g>
					<path style="fill:#2D3B56;" d="M8.608,214.708c-0.069,0-0.139-0.011-0.206-0.033c-0.182-0.06-0.329-0.198-0.401-0.376
						L-3.214,186.64c-0.136-0.335,0.026-0.717,0.361-0.854c0.334-0.135,0.717,0.025,0.854,0.361l10.924,26.943l20.378-12.403
						c0.309-0.187,0.713-0.089,0.901,0.219c0.188,0.309,0.09,0.712-0.219,0.901L8.948,214.613
						C8.844,214.676,8.726,214.708,8.608,214.708z"/>
				</g>
				<g>
					<path style="fill:#2D3B56;" d="M3.481,230.359c-0.069,0-0.139-0.011-0.207-0.033c-0.178-0.059-0.322-0.191-0.396-0.364
						l-10.961-25.604c-0.142-0.332,0.012-0.718,0.345-0.86c0.332-0.144,0.718,0.012,0.86,0.345l10.669,24.923l19.56-11.352
						c0.313-0.181,0.715-0.075,0.896,0.238c0.182,0.313,0.075,0.714-0.238,0.896L3.81,230.27
						C3.709,230.329,3.595,230.359,3.481,230.359z"/>
				</g>
			</g>
			<g style="clip-path:url(#SVGID_00000056406562241905867700000014666687857694362030_);">
				<g>
					<path style="fill:#85A1FD;" d="M58.322,182.337c0,0-82.221,30.393-64.025,102.055c0,0,29.193-0.995,47.256-41.98
						C57.325,206.625,58.322,182.337,58.322,182.337z"/>
				</g>
				<g>
					<path style="fill:#2D3B56;" d="M-2.306,283.701c-0.107,0-0.216-0.023-0.32-0.072c-0.375-0.177-0.535-0.624-0.358-0.998
						c19.671-41.619,59.851-100.007,60.255-100.592c0.236-0.341,0.702-0.427,1.043-0.191c0.341,0.235,0.427,0.702,0.191,1.043
						c-0.403,0.584-40.514,58.873-60.133,100.381C-1.756,283.542-2.025,283.701-2.306,283.701z"/>
				</g>
				<g>
					<path style="fill:#2D3B56;" d="M31.398,223.598c-0.138,0-0.276-0.038-0.396-0.113c-0.193-0.121-0.322-0.323-0.349-0.549
						l-2.675-22.854c-0.048-0.412,0.247-0.784,0.658-0.833c0.412-0.046,0.784,0.247,0.832,0.658l2.565,21.92l17.801-6.317
						c0.392-0.138,0.819,0.066,0.958,0.456c0.138,0.391-0.066,0.819-0.456,0.958l-18.688,6.632
						C31.567,223.584,31.482,223.598,31.398,223.598z"/>
				</g>
				<g>
					<path style="fill:#2D3B56;" d="M41.083,209.171c-0.139,0-0.277-0.039-0.398-0.114c-0.193-0.121-0.321-0.323-0.347-0.549
						l-1.817-15.563c-0.048-0.411,0.247-0.784,0.658-0.832c0.409-0.046,0.784,0.247,0.832,0.658l1.708,14.633l12.287-4.301
						c0.391-0.137,0.819,0.07,0.956,0.46c0.137,0.391-0.069,0.819-0.461,0.956l-13.171,4.61
						C41.25,209.157,41.166,209.171,41.083,209.171z"/>
				</g>
				<g>
					<path style="fill:#2D3B56;" d="M20.854,239.749c-0.142,0-0.283-0.04-0.405-0.119c-0.18-0.115-0.301-0.301-0.336-0.512
						l-4.603-28.616c-0.066-0.409,0.212-0.794,0.621-0.86c0.409-0.063,0.793,0.212,0.86,0.622l4.47,27.789l23.372-6.455
						c0.401-0.109,0.813,0.124,0.923,0.523c0.11,0.399-0.124,0.813-0.523,0.923l-24.179,6.678
						C20.988,239.74,20.921,239.749,20.854,239.749z"/>
				</g>
				<g>
					<path style="fill:#2D3B56;" d="M11.635,257.695c-0.133,0-0.266-0.035-0.383-0.105c-0.189-0.112-0.319-0.302-0.356-0.519
						l-5.738-33.664c-0.07-0.408,0.205-0.796,0.613-0.865c0.408-0.067,0.796,0.205,0.865,0.613l5.59,32.794l25.82-8.855
						c0.39-0.135,0.818,0.074,0.953,0.466c0.134,0.392-0.074,0.818-0.466,0.953l-26.655,9.142
						C11.8,257.681,11.717,257.695,11.635,257.695z"/>
				</g>
				<g>
					<path style="fill:#2D3B56;" d="M2.061,273.926c-0.134,0-0.266-0.036-0.383-0.105c-0.185-0.109-0.314-0.293-0.354-0.504
						l-5.96-31.307c-0.078-0.407,0.189-0.799,0.597-0.877c0.404-0.076,0.8,0.189,0.877,0.597l5.801,30.474l24.648-7.881
						c0.396-0.122,0.817,0.092,0.943,0.486c0.126,0.395-0.091,0.816-0.486,0.943l-25.455,8.139
						C2.214,273.914,2.137,273.926,2.061,273.926z"/>
				</g>
			</g>
			<g style="clip-path:url(#SVGID_00000056406562241905867700000014666687857694362030_);">
				<g>
					<path style="fill:#85A1FD;" d="M-23.758,476.126c0,0-22.73-9.303-32.551,8.937c0,0,6.996,5.872,18.49,0.834
						C-27.784,481.497-23.758,476.126-23.758,476.126z"/>
				</g>
			</g>
			<g style="clip-path:url(#SVGID_00000056406562241905867700000014666687857694362030_);">
				<g>
					<path style="fill:#2D3B56;" d="M-44.907,451.113c0,0-20.641,10.384-13.763,28.618c0,0,8.488-1.338,12.011-12.606
						C-43.582,457.287-44.907,451.113-44.907,451.113z"/>
				</g>
			</g>
			<g style="clip-path:url(#SVGID_00000056406562241905867700000014666687857694362030_);">
				<g>
					<path style="fill:#FFFFFF;" d="M-27.224,453.712c0,0-16.223,3.141-15.028,17.027c0,0,6.102,0.727,10.714-6.345
						C-27.511,458.219-27.224,453.712-27.224,453.712z"/>
				</g>
			</g>
			<g style="clip-path:url(#SVGID_00000056406562241905867700000014666687857694362030_);">
				<g>
					<path style="fill:#2D3B56;" d="M-36.038,445.707c0,0-24.443-2.4-28.626,17.889c0,0,8.385,3.621,17.953-4.499
						C-38.356,452.006-36.038,445.707-36.038,445.707z"/>
				</g>
			</g>
			<g style="clip-path:url(#SVGID_00000056406562241905867700000014666687857694362030_);">
				<g>
					<path style="fill:#85A1FD;" d="M-63.466,427.802c0,0-16.8,15.863-4.986,31.362c0,0,7.749-3.714,7.896-15.519
						C-60.428,433.338-63.466,427.802-63.466,427.802z"/>
				</g>
			</g>
			<g style="clip-path:url(#SVGID_00000056406562241905867700000014666687857694362030_);">
				<g>
					<path style="fill:#FFFFFF;" d="M-45.781,425.226c0,0-14.643,7.657-9.52,20.619c0,0,6.054-1.052,8.447-9.149
						C-44.764,429.626-45.781,425.226-45.781,425.226z"/>
				</g>
			</g>
			<g style="clip-path:url(#SVGID_00000056406562241905867700000014666687857694362030_);">
				<g>
					<path style="fill:#FFFFFF;" d="M321.723,453.154c0,0-29.572,70.67-91.473,52.138c0,0,1.946-25.453,38.399-39.713
						C300.478,453.128,321.723,453.154,321.723,453.154z"/>
				</g>
				<g>
					<path style="fill:#2D3B56;" d="M231.634,503.034c-0.256,0-0.499-0.15-0.605-0.4c-0.141-0.334,0.016-0.718,0.349-0.858
						c36.967-15.599,89.342-48.472,89.867-48.802c0.307-0.192,0.711-0.101,0.904,0.206c0.193,0.306,0.101,0.711-0.206,0.903
						c-0.525,0.331-52.99,33.26-90.056,48.9C231.805,503.017,231.719,503.034,231.634,503.034z"/>
				</g>
				<g>
					<path style="fill:#2D3B56;" d="M305.214,479.002c-0.035,0-0.069-0.002-0.104-0.008l-19.856-3.179
						c-0.197-0.032-0.369-0.151-0.467-0.325c-0.098-0.174-0.112-0.383-0.037-0.567l6.48-16.072c0.135-0.337,0.517-0.5,0.853-0.362
						c0.336,0.135,0.498,0.517,0.363,0.853l-6.173,15.31l19.045,3.049c0.358,0.058,0.601,0.394,0.543,0.751
						C305.809,478.773,305.53,479.002,305.214,479.002z"/>
				</g>
				<g>
					<path style="fill:#2D3B56;" d="M311.834,470.061c-0.035,0-0.069-0.002-0.105-0.008l-13.522-2.161
						c-0.196-0.031-0.368-0.15-0.466-0.323c-0.098-0.174-0.113-0.382-0.039-0.566l4.511-11.331c0.134-0.336,0.517-0.499,0.852-0.367
						c0.336,0.135,0.5,0.516,0.366,0.852l-4.208,10.571l12.714,2.031c0.357,0.058,0.601,0.394,0.544,0.751
						C312.429,469.831,312.15,470.061,311.834,470.061z"/>
				</g>
				<g>
					<path style="fill:#2D3B56;" d="M295.682,489.509c-0.043,0-0.087-0.004-0.132-0.013l-24.816-5.075
						c-0.183-0.038-0.341-0.151-0.434-0.311c-0.094-0.161-0.115-0.355-0.058-0.532l6.723-20.865c0.112-0.344,0.48-0.532,0.825-0.423
						c0.344,0.111,0.534,0.48,0.423,0.825l-6.499,20.169l24.1,4.928c0.354,0.073,0.583,0.419,0.511,0.773
						C296.26,489.295,295.987,489.509,295.682,489.509z"/>
				</g>
				<g>
					<path style="fill:#2D3B56;" d="M284.039,498.074c-0.045,0-0.091-0.005-0.138-0.015l-29.183-6.253
						c-0.188-0.04-0.349-0.161-0.44-0.33c-0.091-0.169-0.104-0.37-0.033-0.549l8.967-22.937c0.132-0.337,0.513-0.501,0.849-0.372
						c0.337,0.132,0.503,0.512,0.372,0.849l-8.686,22.219l28.429,6.092c0.354,0.075,0.58,0.424,0.504,0.778
						C284.613,497.864,284.341,498.074,284.039,498.074z"/>
				</g>
				<g>
					<path style="fill:#2D3B56;" d="M267.445,505.941c-0.049,0-0.1-0.005-0.15-0.018l-27.116-6.359
						c-0.183-0.042-0.338-0.161-0.427-0.327c-0.089-0.165-0.103-0.36-0.038-0.536l8.046-21.926c0.125-0.34,0.503-0.514,0.841-0.39
						c0.34,0.125,0.515,0.501,0.39,0.841l-7.791,21.231l26.396,6.19c0.352,0.082,0.571,0.435,0.488,0.787
						C268.012,505.738,267.743,505.941,267.445,505.941z"/>
				</g>
			</g>
			<g style="clip-path:url(#SVGID_00000056406562241905867700000014666687857694362030_);">
				<g>
					<path style="fill:#85A1FD;" d="M277.479,436.708c0,0-15.689,86.243-89.42,80.737c0,0-4.078-28.924,33.158-53.814
						C253.731,441.898,277.479,436.708,277.479,436.708z"/>
				</g>
				<g>
					<path style="fill:#2D3B56;" d="M188.89,514.6c-0.235,0-0.467-0.11-0.613-0.316c-0.239-0.339-0.159-0.807,0.179-1.046
						c37.483-26.515,87.94-76.116,88.445-76.614c0.295-0.289,0.77-0.287,1.06,0.008c0.291,0.295,0.287,0.77-0.008,1.061
						c-0.506,0.499-51.05,50.186-88.632,76.771C189.191,514.555,189.04,514.6,188.89,514.6z"/>
				</g>
				<g>
					<path style="fill:#2D3B56;" d="M242.245,470.993c-0.212,0-0.416-0.09-0.559-0.249c-0.152-0.17-0.219-0.4-0.181-0.626
						l3.294-19.554c0.069-0.408,0.458-0.689,0.864-0.614c0.409,0.068,0.684,0.455,0.615,0.864l-3.138,18.626l22.033-1.271
						c0.411-0.036,0.767,0.292,0.791,0.706c0.024,0.413-0.292,0.768-0.706,0.792l-22.972,1.324
						C242.274,470.993,242.259,470.993,242.245,470.993z"/>
				</g>
				<g>
					<path style="fill:#2D3B56;" d="M254.776,458.956c-0.212,0-0.415-0.09-0.557-0.248c-0.153-0.169-0.22-0.398-0.183-0.623
						l2.258-13.771c0.067-0.409,0.449-0.685,0.862-0.619c0.409,0.067,0.686,0.453,0.619,0.861l-2.107,12.848l14.707-0.853
						c0.398-0.036,0.768,0.292,0.792,0.706c0.024,0.413-0.291,0.768-0.705,0.792l-15.643,0.907
						C254.805,458.956,254.79,458.956,254.776,458.956z"/>
				</g>
				<g>
					<path style="fill:#2D3B56;" d="M228.164,484.176c-0.21,0-0.409-0.088-0.551-0.241c-0.145-0.157-0.216-0.368-0.195-0.58
						l2.388-24.97c0.04-0.412,0.412-0.708,0.818-0.676c0.413,0.04,0.715,0.406,0.675,0.818l-2.309,24.137l28.144-0.412
						c0.406,0.043,0.755,0.324,0.761,0.739c0.006,0.414-0.325,0.755-0.739,0.761l-28.981,0.424
						C228.171,484.176,228.168,484.176,228.164,484.176z"/>
				</g>
				<g>
					<path style="fill:#2D3B56;" d="M212.087,496.365c-0.219,0-0.426-0.096-0.569-0.261c-0.144-0.167-0.206-0.389-0.172-0.606
						l4.386-27.836c0.064-0.409,0.454-0.684,0.857-0.624c0.409,0.064,0.689,0.449,0.624,0.858l-4.249,26.964l33.268-0.176
						c0.001,0,0.002,0,0.004,0c0.413,0,0.747,0.333,0.75,0.746c0.002,0.414-0.332,0.752-0.746,0.754l-34.15,0.181
						C212.089,496.365,212.089,496.365,212.087,496.365z"/>
				</g>
				<g>
					<path style="fill:#2D3B56;" d="M229.626,509.052c-0.003,0-0.007,0-0.011,0l-31.866-0.446c-0.214-0.003-0.417-0.098-0.558-0.261
						c-0.14-0.163-0.204-0.378-0.175-0.591l3.607-26.48c0.056-0.41,0.434-0.699,0.844-0.642c0.411,0.056,0.698,0.434,0.642,0.845
						l-3.492,25.64l31.019,0.435c0.414,0.006,0.745,0.347,0.739,0.761C230.37,508.723,230.035,509.052,229.626,509.052z"/>
				</g>
			</g>
			<g style="opacity:0.5;clip-path:url(#SVGID_00000056406562241905867700000014666687857694362030_);">
				<path style="fill:#FFFFFF;" d="M746.707,31.11l-1.279,1.26c-5.397,3.136-16.28,9.963-30.404,21.41
					c-20.478,16.595-48.516,56.923-48.516,56.923s18.782-8.27,45.272-26.799c23.444-16.399,34.676-45.746,36.95-52.28
					c2.244,17.257,3.597,33.889,4.2,49.854l-2.004,2.479c-4.395,3.312-12.584,9.941-22.882,20.423
					c-15.603,15.882-35.285,52.402-35.285,52.402s14.974-8.733,35.437-26.811c15.114-13.352,22.227-33.459,24.916-43.065
					c0.475,17.251,0.087,33.704-0.971,49.308l-0.297,0.175c0.08,0.136,0.17,0.316,0.256,0.475
					c-0.538,7.778-1.246,15.334-2.09,22.681l-0.366-0.437c-0.062,0.052-1.029,0.861-2.643,2.203
					c-5.401,2.221-16.992,7.431-32.562,16.935c-21.859,13.343-53.938,48.409-53.938,48.409s19.2-5.606,47.117-20.063
					c23.143-11.985,37.295-36.108,41.461-44.013c0.24-0.2,0.447-0.373,0.648-0.54c-2.945,24.531-7.452,46.576-12.59,65.908
					c-0.475,0.385-1.184,0.96-2.073,1.679c-5.467,2.257-16.99,7.459-32.411,16.873c-21.859,13.343-53.938,48.409-53.938,48.409
					s19.2-5.606,47.117-20.063c20.432-10.581,33.853-30.622,39.587-40.615c-2.708,9.633-5.552,18.555-8.412,26.699
					c-7.833,22.311-16.392,40.88-24.03,55.38l-1.164,0.673c-21.213-3.009-45.419,15.283-50.527,22.524
					c-5.251,7.445-26.274,24.012-26.274,24.012c24.537-4.278,64.585-33.205,75.708-42.997c-8.27,15.214-15.188,25.346-18.503,29.935
					l-0.384-0.245l-0.286,0.449c-6.804-2.497-34.754,24.083-53.544,87.547c0,0,11.924-16.561,26.953-29.037
					c15.028-12.476,27.543-42.163,28.134-55.288c0.011-0.25-0.014-0.459-0.027-0.682c4.196-5.658,19.255-27.062,34.511-61.99
					c0.007,0.105,0.016,0.198,0.023,0.307c-2.45,11.374-7.502,36.041-8.065,48.563c-0.747,16.603,7.885,50.728,7.885,50.728
					l9.143-38.871c2.818-35.923-4.979-59.446-7.11-65.087c2.249-5.313,4.491-10.926,6.695-16.817
					c0.787,6.754,3.711,25.224,13.132,38.642c11.726,16.702,39.787,40.147,39.787,40.147
					c-14.465-51.819-42.464-74.202-50.788-79.891l-1.098-1.659c0.66-1.8,1.315-3.626,1.966-5.478
					c3.432-9.768,6.842-20.643,10.023-32.53c0.053-0.043,0.128-0.104,0.159-0.13l-0.093-0.115c1.578-5.912,3.094-12.083,4.53-18.498
					c0.268,7.461,1.746,25.105,9.564,38.7c10.173,17.691,36.006,43.57,36.006,43.57c-9.736-52.914-35.606-77.729-43.382-84.144
					l-1.231-2.282l-0.047,0.026c3.375-15.741,6.226-32.903,8.171-51.411c1.726,16.798,8.26,43.195,29.695,73.425
					c0,0-0.52-36.562-6.098-56.192c-4.298-15.125-15.977-28.547-21.115-33.916c-0.314-0.723-0.612-1.376-0.887-1.93
					c0.908-13.381,1.336-27.372,1.142-41.963l0.098,0.148c1.546,9.651,9.802,44.732,50.938,80.017c0,0-9.374-35.343-19.548-53.034
					c-8.173-14.212-23.684-24.683-29.471-28.254l-1.298-1.974l-0.772,0.508c-0.057-3.16-0.145-6.348-0.261-9.563l0.096-0.118
					l-0.104-0.084c-0.556-15.218-1.776-31.03-3.81-47.42c2.656,9.589,11.52,36.318,31.523,53.176
					c24.719,20.833,42.682,30.756,42.682,30.756s-24.304-42.682-43.209-61.049c-13.248-12.871-23.574-20.679-28.582-24.209
					l-2.432-2.978l-0.496,0.405c-1.133-8.639-2.463-17.416-4.063-26.361c-0.066-0.37-0.302-0.666-0.613-0.824
					c-0.216-0.109-0.466-0.152-0.723-0.106c-0.626,0.112-1.043,0.71-0.93,1.336c1.566,8.76,2.873,17.357,3.99,25.823
					c-0.354,0.188-0.886,0.479-1.554,0.853L746.707,31.11z"/>
			</g>
			<g style="opacity:0.5;clip-path:url(#SVGID_00000056406562241905867700000014666687857694362030_);">
				<path style="fill:#FFFFFF;" d="M740.203,48.772l-1.479,1.111c-4.018,5.021-12.633,15.07-26.449,27.718
					c-20.031,18.337-65.397,40.761-65.397,40.761s11.289-17.879,34.207-42.046c20.283-21.39,51.898-28.362,58.903-29.684
					c-17.242-4.917-33.983-8.83-50.16-11.878l-2.832,1.665c-4.044,3.974-12.047,11.308-24.297,20.203
					c-18.561,13.478-58.774,27.969-58.774,27.969s11.181-13.927,32.721-32.023c15.909-13.366,37.481-17.549,47.68-18.825
					c-17.506-3.113-34.331-5.226-50.392-6.525l-0.223,0.276c-0.126-0.102-0.297-0.222-0.445-0.333
					c-8.007-0.637-15.815-1.068-23.43-1.327l0.39,0.439c-0.062,0.055-1.034,0.917-2.648,2.357
					c-3.086,5.165-10.161,16.182-22.218,30.599c-16.927,20.24-57.547,47.583-57.547,47.583s8.639-18.71,27.624-44.953
					c15.739-21.756,42.477-32.499,51.167-35.54c0.241-0.215,0.448-0.399,0.649-0.578c-25.445-0.738-48.595,0.495-69.077,2.785
					c-0.465,0.425-1.158,1.06-2.027,1.856c-3.133,5.227-10.19,16.175-22.132,30.454c-16.927,20.24-57.547,47.583-57.547,47.583
					s8.639-18.71,27.624-44.953c13.895-19.207,36.362-29.828,47.419-34.148c-10.228,1.291-19.753,2.83-28.488,4.503
					c-23.928,4.582-44.154,10.473-60.093,16.046l-0.863,1.084c-0.167,22.074-22.495,43.952-30.652,48.052
					c-8.386,4.216-28.472,23.114-28.472,23.114c8.098-24.351,43.678-60.75,55.351-70.592c-16.763,6.108-28.141,11.613-33.323,14.292
					l0.191,0.428l-0.501,0.223c1.508,7.314-29.836,31.743-97.368,41.218c0,0,18.693-9.627,33.696-23.039
					c15.003-13.412,47.16-21.64,60.624-20.241c0.256,0.027,0.466,0.084,0.691,0.131c6.405-3.414,30.51-15.496,68.425-25.719
					c-0.106-0.024-0.199-0.046-0.309-0.07c-11.963,0.763-37.868,2.151-50.713,0.817c-17.032-1.769-50.489-15.765-50.489-15.765
					l41.001-3.392c37.034,2.604,59.815,14.133,65.238,17.164c5.757-1.482,11.818-2.911,18.156-4.259
					c-6.763-1.832-25.137-7.625-37.374-19.27c-15.232-14.494-34.846-46.66-34.846-46.66c50.597,22.636,69.138,54.578,73.667,63.927
					l1.523,1.372c1.935-0.398,3.895-0.788,5.882-1.168c10.476-2.009,22.078-3.826,34.675-5.255c0.052-0.048,0.126-0.115,0.156-0.143
					l0.102,0.112c6.265-0.707,12.784-1.312,19.539-1.796c-7.562-1.41-25.315-5.605-37.977-15.643
					c-16.477-13.063-38.909-43.329-38.909-43.329c52.434,17.984,73.777,48.127,79.129,57.028l2.138,1.602l-0.033,0.045
					c16.554-1.04,34.476-1.33,53.632-0.491c-16.853-4.319-42.756-15-70.292-41.448c0,0,37.176,6.102,56.329,14.778
					c14.757,6.684,26.654,20.631,31.342,26.685c0.688,0.43,1.309,0.833,1.832,1.198c13.774,1.115,28.095,2.81,42.933,5.232
					l-0.136-0.122c-9.599-3.047-44.086-16.805-73.772-64.099c0,0,34.585,14.938,51.061,28.002
					c13.236,10.494,21.542,27.895,24.298,34.336l1.814,1.623l-0.635,0.709c3.211,0.54,6.446,1.115,9.704,1.723l0.135-0.079
					l0.07,0.119c15.422,2.886,31.348,6.539,47.739,11.109c-9.366-4.167-35.252-17.274-49.381-40.225
					c-17.461-28.362-24.835-48.179-24.835-48.179s39.788,31.27,55.623,53.332c11.096,15.46,17.478,27.173,20.313,32.813l2.664,2.932
					l-0.488,0.444c8.63,2.471,17.37,5.164,26.241,8.157c0.367,0.123,0.633,0.409,0.747,0.75c0.079,0.236,0.084,0.498-0.002,0.753
					c-0.21,0.62-0.882,0.954-1.503,0.744c-8.688-2.931-17.249-5.573-25.704-8.001c-0.246,0.332-0.623,0.83-1.106,1.453
					L740.203,48.772z"/>
			</g>
			<g style="clip-path:url(#SVGID_00000056406562241905867700000014666687857694362030_);">
				<g>
					<path style="fill:#FFFFFF;" d="M387.452,37.061c0,0,41.368-64.478,99.122-35.503c0,0-6.326,24.731-44.698,32.46
						C408.371,40.767,387.452,37.061,387.452,37.061z"/>
				</g>
				<g>
					<path style="fill:#2D3B56;" d="M387.642,37.37c-0.258,0-0.503-0.154-0.606-0.408c-0.138-0.335,0.023-0.718,0.358-0.854
						c0.575-0.235,57.95-23.577,97.166-32.559c0.357-0.082,0.705,0.139,0.785,0.492c0.081,0.353-0.14,0.705-0.492,0.785
						c-39.111,8.958-96.39,32.261-96.963,32.495C387.809,37.355,387.725,37.37,387.642,37.37z"/>
				</g>
				<g>
					<path style="fill:#2D3B56;" d="M417.915,37.042c-0.118,0-0.238-0.032-0.346-0.1c-0.308-0.191-0.401-0.596-0.21-0.903
						l8.732-14.009l-18.229-6.302c-0.343-0.119-0.523-0.492-0.405-0.834c0.119-0.342,0.494-0.521,0.833-0.405l19.006,6.571
						c0.189,0.065,0.338,0.213,0.404,0.401c0.066,0.188,0.044,0.396-0.062,0.565l-9.167,14.707
						C418.347,36.932,418.133,37.042,417.915,37.042z"/>
				</g>
				<g>
					<path style="fill:#2D3B56;" d="M406.544,38.273c-0.117,0-0.236-0.032-0.344-0.098c-0.308-0.19-0.403-0.594-0.213-0.902
						l5.977-9.681l-12.17-4.203c-0.342-0.118-0.523-0.492-0.405-0.833c0.119-0.343,0.494-0.524,0.833-0.406l12.943,4.471
						c0.188,0.065,0.337,0.212,0.403,0.399c0.067,0.188,0.045,0.395-0.06,0.564l-6.406,10.378
						C406.978,38.162,406.763,38.273,406.544,38.273z"/>
				</g>
				<g>
					<path style="fill:#2D3B56;" d="M432.609,35.751c-0.103,0-0.207-0.024-0.305-0.076c-0.32-0.169-0.443-0.565-0.274-0.886
						l9.896-18.738l-22.881-9.029c-0.337-0.133-0.502-0.514-0.369-0.851c0.133-0.337,0.513-0.499,0.85-0.369l23.562,9.298
						c0.174,0.068,0.31,0.208,0.374,0.382c0.065,0.175,0.053,0.369-0.034,0.534L433.19,35.402
						C433.072,35.624,432.844,35.751,432.609,35.751z"/>
				</g>
				<g>
					<path style="fill:#2D3B56;" d="M447.089,32.901c-0.116,0-0.233-0.031-0.34-0.096c-0.31-0.188-0.407-0.592-0.219-0.901
						l12.403-20.378L431.989,0.602c-0.336-0.136-0.497-0.518-0.361-0.854c0.137-0.336,0.521-0.497,0.853-0.361l27.659,11.214
						c0.179,0.072,0.315,0.219,0.376,0.401c0.06,0.183,0.038,0.383-0.063,0.547l-12.805,21.037
						C447.526,32.788,447.31,32.901,447.089,32.901z"/>
				</g>
				<g>
					<path style="fill:#2D3B56;" d="M463.821,26.937c-0.111,0-0.225-0.029-0.328-0.089c-0.313-0.182-0.42-0.583-0.238-0.896
						l11.352-19.56L449.683-4.277c-0.333-0.143-0.487-0.528-0.345-0.86c0.143-0.333,0.527-0.489,0.86-0.345l25.604,10.961
						c0.173,0.074,0.306,0.218,0.364,0.396c0.06,0.178,0.039,0.373-0.055,0.536l-11.723,20.2
						C464.267,26.82,464.047,26.937,463.821,26.937z"/>
				</g>
			</g>
			<g style="clip-path:url(#SVGID_00000056406562241905867700000014666687857694362030_);">
				<g>
					<path style="fill:#85A1FD;" d="M428.178,60.923c0,0,30.393-82.221,102.055-64.025c0,0-0.995,29.193-41.98,47.256
						C452.466,59.926,428.178,60.923,428.178,60.923z"/>
				</g>
				<g>
					<path style="fill:#2D3B56;" d="M428.306,61.239c-0.238,0-0.473-0.113-0.618-0.324c-0.235-0.341-0.149-0.808,0.191-1.043
						c0.585-0.404,58.972-40.583,100.592-60.255c0.377-0.178,0.821-0.016,0.998,0.358c0.178,0.375,0.018,0.821-0.357,0.999
						c-41.511,19.619-99.797,59.73-100.381,60.133C428.601,61.196,428.453,61.239,428.306,61.239z"/>
				</g>
				<g>
					<path style="fill:#2D3B56;" d="M462.057,53.436c-0.083,0-0.168-0.014-0.251-0.043c-0.391-0.139-0.595-0.567-0.456-0.958
						l6.317-17.801l-21.92-2.565c-0.412-0.048-0.706-0.421-0.658-0.832c0.049-0.411,0.426-0.705,0.832-0.658l22.855,2.675
						c0.227,0.027,0.43,0.155,0.55,0.349c0.121,0.194,0.147,0.432,0.07,0.647l-6.632,18.688
						C462.655,53.244,462.366,53.436,462.057,53.436z"/>
				</g>
				<g>
					<path style="fill:#2D3B56;" d="M449.652,57.604c-0.082,0-0.166-0.013-0.248-0.042c-0.391-0.137-0.597-0.565-0.46-0.956
						l4.301-12.288l-14.633-1.708c-0.411-0.048-0.706-0.421-0.658-0.832c0.049-0.412,0.426-0.703,0.832-0.658l15.564,1.817
						c0.227,0.026,0.428,0.154,0.549,0.347c0.121,0.193,0.147,0.431,0.072,0.646l-4.61,13.171
						C450.252,57.411,449.962,57.604,449.652,57.604z"/>
				</g>
				<g>
					<path style="fill:#2D3B56;" d="M478.163,48.384c-0.065,0-0.133-0.009-0.199-0.027c-0.399-0.11-0.634-0.523-0.523-0.923
						l6.454-23.372l-27.789-4.47c-0.409-0.066-0.688-0.451-0.621-0.86c0.065-0.41,0.457-0.692,0.859-0.621l28.616,4.603
						c0.211,0.034,0.396,0.156,0.512,0.335c0.115,0.179,0.148,0.399,0.092,0.605l-6.678,24.179
						C478.794,48.166,478.492,48.384,478.163,48.384z"/>
				</g>
				<g>
					<path style="fill:#2D3B56;" d="M493.643,41.641c-0.081,0-0.163-0.013-0.243-0.041c-0.392-0.134-0.6-0.561-0.466-0.953
						l8.855-25.82l-32.795-5.59c-0.408-0.069-0.683-0.457-0.613-0.865c0.07-0.409,0.456-0.684,0.865-0.613l33.665,5.738
						c0.217,0.037,0.406,0.167,0.518,0.356c0.112,0.189,0.137,0.418,0.064,0.626l-9.143,26.655
						C494.246,41.446,493.955,41.641,493.643,41.641z"/>
				</g>
				<g>
					<path style="fill:#2D3B56;" d="M510.879,30.867c-0.075,0-0.152-0.011-0.229-0.036c-0.395-0.126-0.612-0.548-0.486-0.943
						l7.881-24.648L487.57-0.562c-0.406-0.078-0.674-0.47-0.596-0.877c0.077-0.408,0.468-0.673,0.877-0.597l31.307,5.96
						c0.211,0.04,0.394,0.169,0.504,0.354c0.109,0.185,0.135,0.407,0.07,0.612l-8.139,25.455
						C511.491,30.663,511.196,30.867,510.879,30.867z"/>
				</g>
			</g>
			<g style="clip-path:url(#SVGID_00000056406562241905867700000014666687857694362030_);">
				<g>
					<path style="fill:#FFFFFF;" d="M698.995,324.323c0,0,70.67-29.572,52.138-91.473c0,0-25.453,1.946-39.713,38.399
						C698.969,303.079,698.995,324.323,698.995,324.323z"/>
				</g>
				<g>
					<path style="fill:#2D3B56;" d="M699.368,324.852c-0.119,0-0.239-0.032-0.348-0.101c-0.307-0.192-0.398-0.598-0.206-0.903
						c0.33-0.525,33.203-52.901,48.802-89.868c0.141-0.333,0.525-0.489,0.858-0.349c0.333,0.141,0.489,0.525,0.349,0.859
						c-15.64,37.065-48.568,89.53-48.899,90.056C699.798,324.743,699.586,324.852,699.368,324.852z"/>
				</g>
				<g>
					<path style="fill:#2D3B56;" d="M724.187,308.469c-0.316,0-0.595-0.229-0.646-0.552l-3.049-19.045l-15.309,6.173
						c-0.333,0.138-0.718-0.025-0.853-0.362c-0.136-0.336,0.026-0.718,0.362-0.852l16.072-6.48c0.185-0.076,0.393-0.063,0.567,0.037
						c0.174,0.098,0.293,0.27,0.325,0.467l3.179,19.857c0.057,0.357-0.186,0.693-0.544,0.751
						C724.256,308.466,724.221,308.469,724.187,308.469z"/>
				</g>
				<g>
					<path style="fill:#2D3B56;" d="M715.246,315.089c-0.316,0-0.595-0.229-0.646-0.552l-2.031-12.714l-10.571,4.209
						c-0.333,0.132-0.717-0.031-0.852-0.367c-0.134-0.336,0.03-0.717,0.367-0.852l11.331-4.512c0.185-0.072,0.392-0.059,0.566,0.039
						c0.173,0.099,0.292,0.271,0.323,0.467l2.161,13.523c0.057,0.357-0.186,0.693-0.544,0.751
						C715.315,315.087,715.28,315.089,715.246,315.089z"/>
				</g>
				<g>
					<path style="fill:#2D3B56;" d="M734.694,298.937c-0.305,0-0.578-0.214-0.642-0.524l-4.928-24.099l-20.169,6.499
						c-0.349,0.11-0.714-0.079-0.825-0.423c-0.111-0.345,0.078-0.714,0.423-0.825l20.865-6.724c0.178-0.056,0.372-0.034,0.532,0.058
						c0.16,0.095,0.273,0.253,0.311,0.435l5.075,24.816c0.072,0.354-0.156,0.7-0.512,0.773
						C734.782,298.933,734.738,298.937,734.694,298.937z"/>
				</g>
				<g>
					<path style="fill:#2D3B56;" d="M743.258,287.294c-0.302,0-0.574-0.21-0.64-0.518l-6.092-28.429l-22.219,8.685
						c-0.337,0.131-0.718-0.035-0.849-0.372c-0.132-0.337,0.034-0.717,0.372-0.849l22.937-8.966
						c0.177-0.071,0.379-0.058,0.549,0.033c0.169,0.091,0.29,0.252,0.33,0.439l6.253,29.183c0.076,0.354-0.149,0.703-0.503,0.778
						C743.35,287.289,743.304,287.294,743.258,287.294z"/>
				</g>
				<g>
					<path style="fill:#2D3B56;" d="M751.126,270.701c-0.297,0-0.566-0.203-0.637-0.506l-6.189-26.394l-21.232,7.792
						c-0.336,0.125-0.716-0.05-0.841-0.39c-0.125-0.34,0.05-0.717,0.39-0.841l21.926-8.046c0.178-0.064,0.373-0.051,0.536,0.038
						c0.166,0.089,0.285,0.245,0.327,0.428l6.358,27.115c0.083,0.353-0.136,0.705-0.488,0.787
						C751.226,270.696,751.175,270.701,751.126,270.701z"/>
				</g>
			</g>
			<g style="clip-path:url(#SVGID_00000056406562241905867700000014666687857694362030_);">
				<g>
					<path style="fill:#85A1FD;" d="M682.549,280.08c0,0,86.243-15.689,80.737-89.42c0,0-28.924-4.078-53.814,33.159
						C687.739,256.331,682.549,280.08,682.549,280.08z"/>
				</g>
				<g>
					<path style="fill:#2D3B56;" d="M682.999,280.78c-0.19,0-0.38-0.072-0.526-0.216c-0.295-0.291-0.299-0.766-0.008-1.061
						c0.498-0.505,50.101-50.964,76.614-88.446c0.239-0.338,0.706-0.42,1.046-0.179c0.338,0.239,0.418,0.707,0.179,1.046
						c-26.584,37.582-76.272,88.126-76.771,88.632C683.386,280.705,683.192,280.78,682.999,280.78z"/>
				</g>
				<g>
					<path style="fill:#2D3B56;" d="M714.761,268.568c-0.015,0-0.029,0-0.044-0.001c-0.414-0.024-0.73-0.379-0.706-0.792
						l1.271-22.033l-18.627,3.138c-0.415,0.071-0.796-0.207-0.864-0.615c-0.069-0.408,0.206-0.795,0.614-0.864l19.555-3.294
						c0.229-0.039,0.456,0.029,0.626,0.181c0.17,0.152,0.261,0.374,0.248,0.602l-1.325,22.972
						C715.486,268.26,715.156,268.568,714.761,268.568z"/>
				</g>
				<g>
					<path style="fill:#2D3B56;" d="M703.141,273.769c-0.015,0-0.029,0-0.044-0.001c-0.414-0.024-0.729-0.379-0.706-0.792
						l0.854-14.708l-12.848,2.107c-0.407,0.071-0.794-0.21-0.861-0.619c-0.067-0.408,0.21-0.794,0.619-0.861l13.771-2.259
						c0.225-0.039,0.454,0.03,0.623,0.183c0.169,0.152,0.26,0.374,0.247,0.601l-0.907,15.642
						C703.866,273.461,703.535,273.769,703.141,273.769z"/>
				</g>
				<g>
					<path style="fill:#2D3B56;" d="M728.843,260.495c-0.004,0-0.007,0-0.011,0c-0.414-0.006-0.745-0.347-0.739-0.761l0.412-28.144
						l-24.137,2.309c-0.41,0.043-0.779-0.263-0.818-0.675c-0.039-0.412,0.264-0.778,0.676-0.818l24.97-2.388
						c0.211-0.023,0.423,0.051,0.58,0.195c0.156,0.145,0.244,0.349,0.241,0.562l-0.424,28.98
						C729.587,260.167,729.253,260.495,728.843,260.495z"/>
				</g>
				<g>
					<path style="fill:#2D3B56;" d="M741.275,249.588c-0.001,0-0.003,0-0.004,0c-0.414-0.002-0.748-0.34-0.746-0.754l0.176-33.268
						l-26.964,4.249c-0.409,0.064-0.794-0.215-0.858-0.624c-0.065-0.409,0.215-0.793,0.624-0.857l27.836-4.386
						c0.216-0.035,0.438,0.028,0.607,0.172c0.166,0.143,0.262,0.353,0.261,0.573l-0.181,34.15
						C742.023,249.255,741.687,249.588,741.275,249.588z"/>
				</g>
				<g>
					<path style="fill:#2D3B56;" d="M754.143,232.976c-0.409,0-0.744-0.329-0.75-0.739l-0.435-31.019l-25.64,3.492
						c-0.416,0.056-0.789-0.231-0.845-0.642c-0.056-0.41,0.231-0.788,0.642-0.844l26.479-3.606c0.217-0.03,0.429,0.035,0.591,0.175
						c0.163,0.14,0.258,0.343,0.261,0.558l0.446,31.865c0.006,0.415-0.325,0.755-0.739,0.761
						C754.15,232.976,754.146,232.976,754.143,232.976z"/>
				</g>
			</g>
			<g style="clip-path:url(#SVGID_00000056406562241905867700000014666687857694362030_);">
				<g>
					<g>
						<path style="fill:#85A1FD;" d="M603.913,135.408c0.018-0.038-13.691-1.956-14.614-1.984
							c-8.928-0.273-18.899,1.128-26.005,6.999c-2.962,2.447-6.46,5.913-6.246,10.073c0.1,1.941,1.047,3.776,2.378,5.192
							c3.236,3.443,8.472,4.377,13.124,3.55C584.77,157.066,598.588,146.76,603.913,135.408z"/>
					</g>
					<g>
						<path style="fill:#FFFFFF;" d="M729.067,12.859c-0.341,0.817-14.843,16.679-6.456,35.258
							c6.941,15.375,19.679,8.808,21.921,3.616c2.242-5.192,2.357-15.923-4.168-25.572
							C733.859,16.542,729.067,12.859,729.067,12.859z"/>
					</g>
					<g>
						<path style="fill:#85A1FD;" d="M699.495,46.664c-0.008,1.634-14.353,37.035,5.287,46.731
							c8.878,4.383,21.675-10.338,12.953-31.564c-5.262-12.804-8.306-16.148-13.135-21.321L699.495,46.664z"/>
					</g>
					<g>
						<path style="fill:#FFFFFF;" d="M659.454,44.492c5.685,18.161,41.006,0.133,41.006,0.133l3.184-4.119
							c0,0-11.35-10.7-23.924-11.003C671.436,29.303,656.427,34.821,659.454,44.492z"/>
					</g>
					<g>
						<path style="fill:#85A1FD;" d="M700.197,22.992c7.226,0.968,14.573-0.866,20.961-3.802l7.697-7.382
							c0,0-8.325-11.893-21.604-15.813c-4.005-1.182-17.134-2.879-23.012,8.057C679.747,12.408,688.263,21.394,700.197,22.992z"/>
					</g>
					<g>
						<path style="fill:#FFFFFF;" d="M681.557,73.39c-0.823,0.338-22.557,37.22-6.085,45.521
							c12.886,6.494,19.099-9.512,16.882-21.447C689.412,81.624,681.557,73.39,681.557,73.39z"/>
					</g>
					<g>
						<path style="fill:#85A1FD;" d="M635.471,76.885c3.65,13.302,35.124,10.294,42.549,1.439l3.537-4.935
							c-2.78-0.971-22.041-9.816-33.667-8.802C640.218,65.257,633.876,71.075,635.471,76.885z"/>
					</g>
					<g>
						<path style="fill:#85A1FD;" d="M655.036,107.009c-0.209,0.752-25.217,27.026-16.002,38.326
							c7.202,8.831,16.505-1.661,19.618-7.385c8.294-15.255,3.11-37.836,3.11-37.836L655.036,107.009z"/>
					</g>
					<g>
						<path style="fill:#FFFFFF;" d="M610.241,97.958c0,0-3.265,9.705,8.429,12.227c11.694,2.522,38.44-7.136,38.44-7.136
							l4.652-2.935c0,0-17.289-9.444-31.181-11.433C614.785,86.419,610.241,97.958,610.241,97.958z"/>
					</g>
					<g>
						<path style="fill:#FFFFFF;" d="M622.304,126.42c-5.456,3.663-32.871,31.115-19.296,36.85
							c8.858,3.742,18.258-7.949,21.944-18.46c3.819-10.892,1.765-20.689,1.924-20.744
							C626.877,124.066,622.304,126.42,622.304,126.42z"/>
					</g>
					<g>
						<path style="fill:#85A1FD;" d="M623.246,125.488c0,0-23.936,6.161-32.809,0.778c-8.873-5.383-1.434-14.657,3.367-16.482
							c4.801-1.825,12.015-1.678,32.463,13.87L623.246,125.488z"/>
					</g>
				</g>
				<g>
					<path style="fill:#2D3B56;" d="M564.135,151.719c-0.322,0-0.621-0.21-0.718-0.534c-0.12-0.396,0.105-0.815,0.502-0.934
						c23.911-7.19,81.438-33.522,97.291-50.646c10.606-11.456,19.227-24.858,27.564-37.818c4.376-6.803,8.9-13.837,13.669-20.526
						c17.41-24.422,35.443-38.899,55.129-44.256c0.406-0.112,0.813,0.128,0.921,0.527s-0.127,0.811-0.526,0.92
						c-19.339,5.263-37.1,19.551-54.303,43.68c-4.747,6.66-9.262,13.678-13.628,20.466c-8.372,13.015-17.029,26.474-27.724,38.025
						c-16.014,17.297-73.916,43.833-97.961,51.063C564.279,151.708,564.207,151.719,564.135,151.719z"/>
				</g>
				<g>
					<path style="fill:#2D3B56;" d="M609.082,155.973c-0.153,0-0.309-0.047-0.442-0.145c-0.334-0.245-0.406-0.714-0.162-1.048
						c0.117-0.159,11.498-15.768,17.389-30.209c-4.177-1.115-23.302-6.077-31.058-5.739c-0.383,0.033-0.765-0.301-0.782-0.715
						c-0.018-0.414,0.302-0.765,0.716-0.783c8.925-0.392,31.382,5.748,32.334,6.009c0.205,0.057,0.377,0.198,0.472,0.388
						c0.096,0.19,0.104,0.413,0.026,0.61c-5.862,14.835-17.767,31.162-17.887,31.325
						C609.541,155.867,609.313,155.973,609.082,155.973z"/>
				</g>
				<g>
					<path style="fill:#2D3B56;" d="M647.641,137.186c-0.12,0-0.242-0.029-0.356-0.09c-0.364-0.197-0.5-0.652-0.304-1.016
						c0.103-0.188,10.044-18.706,12.626-34.198c-3.431-0.565-18.592-2.808-34.886-1.293c-0.408,0.041-0.778-0.264-0.816-0.677
						c-0.038-0.412,0.265-0.778,0.678-0.816c18.648-1.736,35.848,1.404,36.02,1.436c0.397,0.074,0.665,0.45,0.603,0.851
						c-2.423,15.893-12.8,35.219-12.904,35.412C648.167,137.044,647.908,137.186,647.641,137.186z"/>
				</g>
				<g>
					<path style="fill:#2D3B56;" d="M680.661,108.59c-0.043,0-0.087-0.003-0.131-0.011c-0.408-0.072-0.681-0.461-0.608-0.869
						c0.039-0.226,3.88-22.366-0.181-30.8c-3.007-0.338-22.202-2.392-30.847-0.706c-0.408,0.077-0.8-0.187-0.88-0.593
						c-0.079-0.407,0.187-0.8,0.593-0.88c9.575-1.867,30.809,0.627,31.709,0.734c0.243,0.029,0.458,0.175,0.573,0.392
						c4.587,8.61,0.678,31.157,0.509,32.112C681.335,108.334,681.018,108.59,680.661,108.59z"/>
				</g>
				<g>
					<path style="fill:#2D3B56;" d="M707.78,83.053c-0.015,0-0.029,0-0.045-0.001c-0.413-0.024-0.729-0.379-0.705-0.792
						c0.014-0.231,1.266-23.074-4.546-39.918c-2.405-0.495-15.217-2.837-26.12,0.8c-0.393,0.132-0.816-0.08-0.948-0.474
						c-0.132-0.393,0.081-0.817,0.474-0.949c12.434-4.15,26.732-0.893,27.335-0.753c0.249,0.058,0.451,0.239,0.536,0.48
						c6.071,17.169,4.781,40.666,4.768,40.901C708.504,82.745,708.173,83.053,707.78,83.053z"/>
				</g>
				<g>
					<path style="fill:#2D3B56;" d="M735.727,43.592c-0.001,0-0.002,0-0.003,0c-0.414-0.001-0.749-0.338-0.747-0.753
						c0.054-14.449-5.882-27.108-6.78-28.939c-17.317-7.956-31.045-5.299-31.182-5.271c-0.417,0.084-0.803-0.18-0.885-0.585
						c-0.083-0.406,0.179-0.802,0.584-0.885c0.581-0.119,14.446-2.822,32.352,5.49c0.151,0.07,0.274,0.188,0.35,0.335
						c0.071,0.138,7.12,13.944,7.061,29.86C736.475,43.258,736.14,43.592,735.727,43.592z"/>
				</g>
			</g>
			<g style="clip-path:url(#SVGID_00000056406562241905867700000014666687857694362030_);">
				<path style="fill:#2D3B56;" d="M753.537,88.985c-0.3-0.125-0.652,0.015-0.778,0.321c-1.692,4.066-3.45,8.001-5.253,11.83
					c-0.071-0.006-0.173-0.013-0.266-0.02c-0.116-0.221-0.349-0.356-0.638-0.294l-0.967,0.203c-3.123-0.136-9.44-0.195-18.294,0.78
					c-12.972,1.429-35.448,10.718-35.448,10.718s10.037,1.585,26.031,0.96c13.432-0.525,25.378-8.83,28.871-11.485l0.052-0.011
					c0.193-0.04,0.335-0.175,0.411-0.342c0.006-0.005,0.009-0.007,0.015-0.012c-3.666,7.746-7.538,15.021-11.563,21.833l-1.601,0.53
					c-2.745,0.209-7.888,0.783-14.894,2.371c-10.751,2.437-28.727,12.377-28.727,12.377s8.575,0.372,21.938-1.678
					c9.826-1.508,18.13-7.919,21.847-11.213c-4.26,7.036-8.672,13.582-13.169,19.653c-0.32,0.016-0.559,0.252-0.572,0.564
					c-0.003,0.065-0.012,0.149-0.017,0.222c-4.113,5.506-8.29,10.623-12.48,15.373c-0.096-0.044-0.204-0.072-0.336-0.061
					c-0.04,0.005-0.687,0.086-1.769,0.219c-2.882-0.524-9.073-1.442-18.014-1.65c-12.677-0.296-35.426,5.72-35.426,5.72
					s9.498,2.806,24.996,4.26c12.785,1.199,25.08-4.992,28.996-7.198c0.169-0.021,0.324-0.04,0.464-0.057
					c-5.78,6.463-11.569,12.232-17.226,17.366c-0.304,0.034-0.707,0.078-1.2,0.132c-2.92-0.527-9.08-1.429-17.93-1.635
					c-12.677-0.296-35.426,5.72-35.426,5.72s9.498,2.806,24.996,4.26c10.977,1.03,21.593-3.39,26.856-6.057
					c-13.212,11.616-25.548,19.76-35.127,25.208l-0.598-0.028c-8.044-6.877-22.941-5.763-26.997-4.119
					c-4.18,1.695-17.372,2.966-17.372,2.966c11.236,4.734,35.235,3.492,42.789,2.401c-7.009,3.86-12.309,6.172-15.042,7.275
					c-0.16-0.088-0.353-0.111-0.528-0.026l-0.247,0.114c-2.237-2.825-20.964,0.794-45.725,22.145c0,0,9.401-3.705,19-4.877
					c9.6-1.172,22.761-10.186,26.521-15.494c0.064-0.09,0.103-0.173,0.153-0.259c3.663-1.395,18.695-7.573,37.823-21.489
					c-0.002,0.003-0.004,0.007-0.006,0.01c-4.096,4.113-12.727,12.963-16.293,17.998c-4.757,6.715-10.299,23.239-10.299,23.239
					l14.216-13.741c10.828-14.255,13.865-26.177,14.474-29.046c2.378-1.773,4.813-3.668,7.293-5.682l0.006,0.473
					c-1.471,2.998-5.225,11.505-4.893,19.643c0.412,10.096,5.821,27.374,5.821,27.374c7.816-25.345,2.231-42.128,0.264-46.812
					l-0.018-1.345c-0.001-0.089-0.025-0.172-0.061-0.247c2.645-2.178,5.337-4.492,8.061-6.956c0.125-0.014,0.237-0.026,0.284-0.032
					c0.327-0.037,0.563-0.331,0.526-0.658c-0.002-0.015-0.01-0.026-0.013-0.04c8.213-7.498,16.69-16.325,25.003-26.657
					c-3.786,7.449-8.161,20.214-7.325,38.597c0,0,9.573-15.367,12.506-25.037c2.247-7.409,1.005-16.058,0.3-19.706
					c0.07-0.426,0.127-0.813,0.163-1.142c3.966-5.324,7.867-11.011,11.659-17.075l0.001,0.072
					c-1.966,4.52-7.838,21.311-0.185,46.912c0,0,5.559-17.23,6.059-27.323c0.399-8.068-3.215-16.526-4.684-19.602l-0.013-1.226
					c-0.001-0.166-0.071-0.314-0.182-0.421c0.731-1.188,1.456-2.393,2.178-3.609l0.051-0.017c0.302-0.1,0.465-0.418,0.383-0.721
					c3.69-6.265,7.254-12.91,10.645-19.957c-1.49,4.856-4.826,18.181-1.054,30.409c4.717,15.295,9.542,24.238,9.542,24.238
					s1.306-24.284-1.65-36.996c-2.049-8.813-4.237-14.802-5.387-17.651l-0.226-1.979c-0.013-0.119-0.072-0.221-0.145-0.309
					c1.783-3.792,3.521-7.686,5.195-11.709C753.984,89.46,753.842,89.11,753.537,88.985z"/>
			</g>
			<g style="clip-path:url(#SVGID_00000056406562241905867700000014666687857694362030_);">
				<path style="fill:#2D3B56;" d="M649.257-4.27c0.149,0.289,0.038,0.651-0.256,0.802c-3.914,2.02-7.691,4.094-11.36,6.205
					c0.012,0.071,0.027,0.171,0.042,0.263c0.23,0.098,0.383,0.318,0.346,0.612l-0.123,0.98c0.391,3.101,0.968,9.393,0.721,18.296
					c-0.361,13.046-7.777,36.207-7.777,36.207s-2.402-9.874-3.09-25.865c-0.578-13.43,6.721-26.016,9.081-29.715l0.007-0.052
					c0.024-0.196,0.147-0.348,0.307-0.438c0.005-0.007,0.006-0.009,0.011-0.016c-7.42,4.288-14.353,8.744-20.812,13.313
					l-0.397,1.639c0.016,2.753-0.134,7.926-1.143,15.038c-1.548,10.914-9.982,29.645-9.982,29.645s-1.074-8.516-0.125-22.002
					c0.697-9.917,6.406-18.718,9.385-22.692c-6.664,4.822-12.826,9.756-18.508,14.735c0.01,0.321-0.206,0.577-0.515,0.617
					c-0.064,0.008-0.148,0.024-0.22,0.035c-5.15,4.55-9.908,9.133-14.299,13.698c0.051,0.092,0.088,0.197,0.089,0.329
					c-0.002,0.041-0.03,0.692-0.074,1.781c0.758,2.829,2.18,8.925,3.121,17.818c1.333,12.61-2.798,35.776-2.798,35.776
					s-3.575-9.236-6.293-24.563c-2.243-12.644,2.92-25.405,4.798-29.488c0.007-0.17,0.013-0.326,0.019-0.467
					c-5.968,6.29-11.243,12.532-15.896,18.591c-0.008,0.306-0.02,0.711-0.033,1.207c0.764,2.867,2.168,8.933,3.099,17.736
					c1.333,12.61-2.798,35.776-2.798,35.776s-3.575-9.236-6.294-24.563c-1.926-10.856,1.609-21.798,3.836-27.262
					c-10.494,14.119-17.6,27.081-22.245,37.074l0.077,0.594c7.513,7.453,7.624,22.392,6.317,26.569
					c-1.347,4.305-1.532,17.557-1.532,17.557c-5.639-10.81-6.368-34.83-5.899-42.449c-3.273,7.301-5.143,12.773-6.018,15.588
					c0.101,0.153,0.139,0.342,0.069,0.524l-0.093,0.255c2.999,1.998,0.927,20.959-18.324,47.386c0,0,2.922-9.673,3.304-19.336
					c0.382-9.663,8.286-23.519,13.269-27.701c0.084-0.071,0.164-0.117,0.246-0.173c1.09-3.765,6.016-19.252,18.318-39.456
					c-0.003,0.002-0.007,0.005-0.01,0.007c-3.764,4.419-11.876,13.746-16.602,17.713c-6.303,5.291-22.317,12.168-22.317,12.168
					l12.53-15.294c13.32-11.96,24.953-15.964,27.762-16.805c1.573-2.515,3.261-5.098,5.066-7.734l-0.472,0.032
					c-2.867,1.711-11.038,6.15-19.176,6.486c-10.096,0.417-27.759-3.558-27.759-3.558c24.62-9.867,41.804-5.675,46.633-4.099
					l1.342-0.092c0.089-0.006,0.173,0.011,0.252,0.04c1.954-2.815,4.04-5.687,6.272-8.604c0.004-0.126,0.007-0.238,0.008-0.286
					c0.01-0.329,0.284-0.588,0.612-0.578c0.015,0,0.027,0.008,0.041,0.009c6.799-8.799,14.903-17.972,24.519-27.104
					c-7.114,4.384-19.478,9.79-37.867,10.463c0,0,14.531-10.8,23.928-14.516c7.2-2.847,15.922-2.317,19.615-1.914
					c0.419-0.105,0.799-0.193,1.125-0.256c4.981-4.389,10.329-8.743,16.062-13.019l-0.072,0.005
					c-4.344,2.329-20.597,9.558-46.739,4.029c0,0,16.717-6.952,26.734-8.277c8.008-1.059,16.734,1.85,19.92,3.062l1.223-0.088
					c0.165-0.012,0.319,0.045,0.434,0.146c1.124-0.826,2.265-1.648,3.419-2.467l0.013-0.052c0.075-0.309,0.378-0.497,0.687-0.441
					c5.942-4.191,12.272-8.288,19.018-12.245c-4.718,1.883-17.724,6.299-30.22,3.543c-15.63-3.448-24.938-7.524-24.938-7.524
					s24.096-3.292,37.007-1.387c8.951,1.32,15.1,3.01,18.034,3.923l1.99,0.063c0.12,0.004,0.226,0.053,0.32,0.119
					c3.634-2.087,7.372-4.139,11.244-6.137C648.747-4.677,649.107-4.563,649.257-4.27z"/>
			</g>
			<g style="clip-path:url(#SVGID_00000056406562241905867700000014666687857694362030_);">
				<g>
					<path style="fill:#2D3B56;" d="M139.693,437.693c-0.271,0-0.525-0.169-0.621-0.439c-0.121-0.343,0.059-0.72,0.401-0.841
						c0.213-0.075,21.382-7.694,31.326-22.246c0.672-0.982,1.379-2.152,2.128-3.391c2.025-3.348,4.544-7.514,8.264-11.151
						c0.26-0.256,0.677-0.25,0.932,0.01c0.254,0.261,0.249,0.678-0.011,0.932c-3.6,3.521-6.071,7.608-8.058,10.892
						c-0.758,1.255-1.475,2.439-2.167,3.453c-10.19,14.91-31.758,22.668-31.975,22.744
						C139.84,437.68,139.766,437.693,139.693,437.693z"/>
				</g>
				<g>
					<path style="fill:#2D3B56;" d="M162.379,424.736c-0.142,0-0.286-0.046-0.406-0.141c-0.286-0.225-0.336-0.639-0.111-0.926
						c4.97-6.332,6.069-17.871,6.43-21.662c0.059-0.618,0.102-1.056,0.138-1.268c0.061-0.359,0.401-0.605,0.76-0.539
						c0.358,0.061,0.6,0.401,0.539,0.76c-0.033,0.196-0.071,0.601-0.125,1.172c-0.37,3.887-1.497,15.715-6.706,22.352
						C162.767,424.649,162.574,424.736,162.379,424.736z"/>
				</g>
				<g>
					<path style="fill:#2D3B56;" d="M146.348,434.81c-0.191,0-0.38-0.083-0.51-0.242c-0.23-0.281-0.189-0.696,0.093-0.927
						c7.404-6.055,11.148-17.671,11.185-17.788c0.11-0.347,0.481-0.541,0.827-0.429c0.347,0.109,0.539,0.479,0.429,0.826
						c-0.155,0.491-3.893,12.103-11.606,18.41C146.642,434.761,146.494,434.81,146.348,434.81z"/>
				</g>
				<g>
					<path style="fill:#2D3B56;" d="M151.665,432.045c-0.287,0-0.55-0.188-0.633-0.478c-0.1-0.351,0.102-0.715,0.452-0.815
						c8.404-2.405,19.909-3.066,20.024-3.073c0.364-0.002,0.674,0.258,0.694,0.622c0.02,0.363-0.258,0.674-0.621,0.694
						c-0.114,0.006-11.474,0.659-19.735,3.024C151.786,432.036,151.725,432.045,151.665,432.045z"/>
				</g>
				<g>
					<path style="fill:#2D3B56;" d="M168.093,419.388c-0.271,0-0.525-0.169-0.621-0.439c-0.122-0.344,0.058-0.72,0.401-0.842
						c6.617-2.348,15.225-7.464,15.312-7.515c0.312-0.187,0.717-0.084,0.903,0.227c0.186,0.313,0.084,0.718-0.229,0.903
						c-0.087,0.053-8.808,5.235-15.546,7.626C168.24,419.375,168.166,419.388,168.093,419.388z"/>
				</g>
				<g>
					<path style="fill:#F26363;" d="M179.349,398.142c-0.851,1.411-0.397,3.245,1.014,4.096c1.411,0.851,3.245,0.397,4.096-1.014
						c0.851-1.411,0.397-3.245-1.014-4.096C182.034,396.277,180.2,396.731,179.349,398.142z"/>
				</g>
				<g>
					<path style="fill:#F26363;" d="M166.789,398.972c-0.851,1.411-0.397,3.245,1.014,4.096c1.411,0.851,3.245,0.397,4.096-1.014
						c0.851-1.411,0.397-3.245-1.014-4.096C169.473,397.107,167.64,397.561,166.789,398.972z"/>
				</g>
				<g>
					<path style="fill:#F26363;" d="M155.277,413.797c-0.851,1.411-0.397,3.245,1.014,4.096c1.411,0.851,3.245,0.397,4.096-1.014
						c0.851-1.411,0.397-3.245-1.014-4.096C157.961,411.932,156.128,412.386,155.277,413.797z"/>
				</g>
				<g>
					<path style="fill:#F26363;" d="M181.589,409.282c-0.851,1.411-0.397,3.245,1.014,4.096c1.411,0.851,3.245,0.397,4.096-1.014
						c0.851-1.411,0.397-3.245-1.014-4.096C184.274,407.417,182.44,407.871,181.589,409.282z"/>
				</g>
				<g>
					<path style="fill:#F26363;" d="M169.453,426.33c-0.851,1.411-0.397,3.245,1.014,4.096c1.411,0.851,3.245,0.397,4.096-1.014
						c0.851-1.411,0.397-3.245-1.014-4.096C172.138,424.465,170.304,424.919,169.453,426.33z"/>
				</g>
			</g>
			<g style="clip-path:url(#SVGID_00000056406562241905867700000014666687857694362030_);">
				<g>
					<path style="fill:#2D3B56;" d="M63.529,315.117c-0.124,0-0.248-0.035-0.359-0.107c-0.305-0.198-0.391-0.607-0.193-0.911
						c0.125-0.192,12.738-19.332,29.627-25.729c1.148-0.435,2.469-0.852,3.866-1.295c3.659-1.158,8.212-2.6,12.48-5.271
						c0.308-0.191,0.715-0.1,0.908,0.209c0.193,0.309,0.099,0.715-0.209,0.908c-4.411,2.76-9.052,4.228-12.782,5.409
						c-1.38,0.437-2.683,0.849-3.797,1.272c-16.491,6.246-28.866,25.026-28.989,25.215
						C63.955,315.012,63.744,315.117,63.529,315.117z"/>
				</g>
				<g>
					<path style="fill:#2D3B56;" d="M81.459,296.116c-0.25,0-0.489-0.144-0.6-0.386c-0.151-0.331-0.005-0.722,0.326-0.873
						c7.676-3.502,19.438-1.816,23.303-1.261c0.567,0.082,0.969,0.141,1.167,0.154c0.363,0.025,0.637,0.34,0.612,0.702
						c-0.025,0.363-0.33,0.644-0.703,0.612c-0.214-0.015-0.649-0.076-1.263-0.164c-3.771-0.542-15.245-2.188-22.569,1.155
						C81.644,296.096,81.55,296.116,81.459,296.116z"/>
				</g>
				<g>
					<path style="fill:#2D3B56;" d="M67.897,309.328c-0.199,0-0.396-0.091-0.526-0.262c-0.22-0.29-0.162-0.703,0.128-0.923
						c7.944-6.013,20.109-6.916,20.623-6.951c0.381-0.013,0.678,0.25,0.703,0.611c0.025,0.363-0.249,0.678-0.612,0.703
						c-0.122,0.009-12.292,0.914-19.919,6.688C68.175,309.284,68.035,309.328,67.897,309.328z"/>
				</g>
				<g>
					<path style="fill:#2D3B56;" d="M71.834,304.809c-0.11,0-0.222-0.028-0.325-0.086c-0.316-0.18-0.427-0.582-0.248-0.898
						c4.24-7.473,7.548-18.36,7.581-18.47c0.105-0.35,0.474-0.541,0.821-0.44c0.348,0.105,0.545,0.473,0.44,0.821
						c-0.033,0.11-3.382,11.137-7.697,18.739C72.286,304.689,72.064,304.809,71.834,304.809z"/>
				</g>
				<g>
					<path style="fill:#2D3B56;" d="M87.999,291.82c-0.124,0-0.249-0.035-0.36-0.107c-0.305-0.199-0.39-0.607-0.191-0.912
						c3.908-5.987,10.997-13.244,11.068-13.316c0.256-0.26,0.673-0.263,0.932-0.01c0.26,0.255,0.264,0.672,0.01,0.932
						c-0.07,0.072-7.07,7.237-10.906,13.115C88.425,291.714,88.214,291.82,87.999,291.82z"/>
				</g>
				<g>
					<path style="fill:#F26363;" d="M110.657,285.062c-1.572,0.495-3.247-0.377-3.742-1.949c-0.495-1.572,0.377-3.247,1.949-3.742
						c1.572-0.495,3.247,0.377,3.743,1.949C113.101,282.891,112.229,284.567,110.657,285.062z"/>
				</g>
				<g>
					<path style="fill:#F26363;" d="M106.896,297.074c-1.572,0.495-3.247-0.377-3.743-1.949c-0.495-1.572,0.377-3.247,1.949-3.742
						c1.571-0.495,3.247,0.377,3.742,1.949C109.34,294.904,108.467,296.579,106.896,297.074z"/>
				</g>
				<g>
					<path style="fill:#F26363;" d="M89.779,304.777c-1.572,0.495-3.247-0.377-3.742-1.949c-0.495-1.572,0.377-3.247,1.949-3.742
						c1.572-0.495,3.247,0.377,3.742,1.949S91.351,304.281,89.779,304.777z"/>
				</g>
				<g>
					<path style="fill:#F26363;" d="M100.356,280.264c-1.572,0.495-3.247-0.377-3.743-1.949c-0.495-1.572,0.377-3.247,1.949-3.742
						c1.572-0.495,3.247,0.377,3.742,1.949S101.928,279.769,100.356,280.264z"/>
				</g>
				<g>
					<path style="fill:#F26363;" d="M80.932,288.051c-1.572,0.495-3.247-0.377-3.742-1.949c-0.495-1.572,0.377-3.247,1.949-3.742
						c1.572-0.495,3.247,0.377,3.742,1.949C83.376,285.88,82.504,287.555,80.932,288.051z"/>
				</g>
			</g>
			<g style="clip-path:url(#SVGID_00000056406562241905867700000014666687857694362030_);">
				<g>
					<path style="fill:#2D3B56;" d="M475.17,111.136c-0.108,0-0.22-0.027-0.321-0.085c-0.317-0.178-0.431-0.58-0.252-0.897
						c2.466-4.392,3.689-9.011,4.672-12.722c0.375-1.415,0.729-2.752,1.107-3.918c5.587-17.175,24.105-30.683,24.291-30.817
						c0.299-0.213,0.708-0.145,0.92,0.149c0.213,0.295,0.146,0.707-0.148,0.919c-0.184,0.132-18.356,13.396-23.809,30.156
						c-0.368,1.131-0.718,2.451-1.088,3.848c-1.002,3.783-2.249,8.491-4.797,13.03C475.624,111.015,475.4,111.136,475.17,111.136z"
						/>
				</g>
				<g>
					<path style="fill:#2D3B56;" d="M487.024,106.877c-0.33,0-0.614-0.247-0.653-0.583c-0.023-0.197-0.102-0.597-0.21-1.161
						c-0.736-3.834-2.98-15.501,0.152-23.333c0.135-0.338,0.518-0.5,0.857-0.367c0.337,0.135,0.502,0.519,0.366,0.856
						c-2.988,7.473-0.8,18.855-0.081,22.595c0.118,0.611,0.2,1.043,0.225,1.257c0.042,0.361-0.217,0.688-0.578,0.73
						C487.076,106.875,487.049,106.877,487.024,106.877z"/>
				</g>
				<g>
					<path style="fill:#2D3B56;" d="M493.629,89.1c-0.005,0-0.009,0-0.014,0c-0.364-0.008-0.652-0.309-0.645-0.673
						c0.011-0.515,0.334-12.709,5.962-20.93c0.206-0.3,0.616-0.378,0.916-0.171c0.301,0.206,0.377,0.615,0.172,0.916
						c-5.409,7.9-5.73,20.092-5.733,20.214C494.281,88.815,493.987,89.1,493.629,89.1z"/>
				</g>
				<g>
					<path style="fill:#2D3B56;" d="M476.93,81.192c-0.272,0-0.525-0.169-0.621-0.439c-0.121-0.343,0.059-0.72,0.401-0.841
						c0.107-0.038,10.826-3.859,18.089-8.45c0.306-0.195,0.715-0.103,0.908,0.205c0.194,0.308,0.102,0.714-0.205,0.909
						c-7.389,4.671-18.243,8.54-18.353,8.579C477.078,81.179,477.004,81.192,476.93,81.192z"/>
				</g>
				<g>
					<path style="fill:#2D3B56;" d="M470.266,101.045c-0.16,0-0.321-0.058-0.448-0.176c-0.267-0.248-0.282-0.664-0.035-0.931
						c0.069-0.074,6.98-7.5,12.775-11.688c0.296-0.215,0.708-0.146,0.92,0.148c0.213,0.294,0.146,0.706-0.148,0.919
						c-5.688,4.112-12.513,11.444-12.58,11.518C470.62,100.974,470.443,101.045,470.266,101.045z"/>
				</g>
				<g>
					<path style="fill:#F26363;" d="M477.93,111.704c0.42-1.593-0.531-3.226-2.124-3.646c-1.593-0.42-3.226,0.531-3.646,2.124
						c-0.42,1.593,0.531,3.226,2.124,3.646C475.878,114.249,477.51,113.298,477.93,111.704z"/>
				</g>
				<g>
					<path style="fill:#F26363;" d="M489.75,107.376c0.42-1.593-0.531-3.226-2.124-3.646c-1.593-0.42-3.225,0.531-3.646,2.125
						c-0.42,1.593,0.531,3.226,2.124,3.646C487.698,109.921,489.33,108.97,489.75,107.376z"/>
				</g>
				<g>
					<path style="fill:#F26363;" d="M496.63,89.913c0.42-1.593-0.531-3.225-2.125-3.646c-1.593-0.42-3.225,0.531-3.646,2.124
						c-0.42,1.593,0.531,3.226,2.125,3.646C494.578,92.457,496.21,91.506,496.63,89.913z"/>
				</g>
				<g>
					<path style="fill:#F26363;" d="M472.648,101.643c0.42-1.593-0.531-3.225-2.124-3.646c-1.593-0.42-3.226,0.531-3.646,2.124
						c-0.42,1.593,0.531,3.225,2.124,3.646C470.596,104.188,472.228,103.236,472.648,101.643z"/>
				</g>
				<g>
					<path style="fill:#F26363;" d="M479.502,81.871c0.42-1.593-0.531-3.226-2.124-3.646c-1.593-0.42-3.225,0.531-3.646,2.124
						c-0.42,1.593,0.531,3.226,2.125,3.646C477.45,84.416,479.082,83.465,479.502,81.871z"/>
				</g>
			</g>
			<g style="clip-path:url(#SVGID_00000056406562241905867700000014666687857694362030_);">
				<g>
					<path style="fill:#2D3B56;" d="M628.587,279.626c-0.209,0-0.415-0.1-0.543-0.284c-0.207-0.3-0.132-0.71,0.167-0.917
						c4.28-2.96,8.85-4.641,12.522-5.991c1.357-0.499,2.64-0.971,3.732-1.443c16.177-6.995,27.684-26.328,27.798-26.523
						c0.184-0.313,0.585-0.419,0.902-0.234c0.314,0.184,0.418,0.588,0.234,0.902c-0.117,0.198-11.835,19.897-28.411,27.064
						c-1.127,0.487-2.426,0.965-3.801,1.471c-3.602,1.325-8.086,2.975-12.227,5.839
						C628.847,279.588,628.716,279.626,628.587,279.626z"/>
				</g>
				<g>
					<path style="fill:#2D3B56;" d="M641.101,267.978c-3.538,0-6.583-0.294-8.221-0.452c-0.571-0.056-0.977-0.096-1.175-0.101
						c-0.364-0.008-0.652-0.31-0.644-0.673c0.008-0.358,0.301-0.645,0.658-0.645c0.005,0,0.01,0,0.015,0.001
						c0.215,0.004,0.653,0.046,1.273,0.105c3.792,0.366,15.328,1.479,22.488-2.192c0.325-0.169,0.722-0.039,0.887,0.285
						c0.166,0.324,0.038,0.721-0.285,0.887C651.754,267.422,645.962,267.978,641.101,267.978z"/>
				</g>
				<g>
					<path style="fill:#2D3B56;" d="M648.8,259.19c-0.33,0-0.614-0.248-0.653-0.583c-0.042-0.362,0.217-0.689,0.578-0.73
						c0.122-0.015,12.237-1.48,19.591-7.597c0.279-0.232,0.694-0.196,0.928,0.085c0.232,0.28,0.194,0.695-0.086,0.928
						c-7.659,6.372-19.77,7.834-20.281,7.893C648.851,259.188,648.826,259.19,648.8,259.19z"/>
				</g>
				<g>
					<path style="fill:#2D3B56;" d="M658.236,275.077c-0.053,0-0.107-0.007-0.161-0.021c-0.352-0.089-0.566-0.447-0.477-0.8
						c0.028-0.111,2.866-11.28,6.826-19.074c0.164-0.324,0.559-0.455,0.886-0.288c0.324,0.164,0.453,0.561,0.288,0.886
						c-3.892,7.659-6.694,18.689-6.723,18.799C658.799,274.877,658.531,275.077,658.236,275.077z"/>
				</g>
				<g>
					<path style="fill:#2D3B56;" d="M639.092,283.567c-0.156,0-0.314-0.056-0.439-0.168c-0.271-0.242-0.294-0.659-0.052-0.931
						c0.066-0.074,6.729-7.555,10.292-13.602c0.184-0.313,0.59-0.419,0.901-0.233c0.313,0.185,0.418,0.588,0.233,0.901
						c-3.629,6.161-10.377,13.736-10.444,13.813C639.454,283.492,639.273,283.567,639.092,283.567z"/>
				</g>
				<g>
					<path style="fill:#F26363;" d="M627.108,276.335c1.547-0.567,3.261,0.227,3.828,1.775c0.567,1.547-0.227,3.261-1.774,3.828
						c-1.547,0.567-3.261-0.227-3.828-1.775C624.766,278.616,625.561,276.902,627.108,276.335z"/>
				</g>
				<g>
					<path style="fill:#F26363;" d="M630.312,264.162c1.547-0.567,3.261,0.227,3.828,1.775c0.567,1.547-0.227,3.261-1.774,3.828
						c-1.547,0.567-3.261-0.227-3.828-1.775C627.97,266.443,628.765,264.729,630.312,264.162z"/>
				</g>
				<g>
					<path style="fill:#F26363;" d="M647.056,255.68c1.547-0.567,3.261,0.227,3.828,1.774c0.567,1.547-0.227,3.261-1.774,3.828
						c-1.547,0.567-3.261-0.227-3.828-1.775C644.715,257.961,645.509,256.247,647.056,255.68z"/>
				</g>
				<g>
					<path style="fill:#F26363;" d="M637.618,280.653c1.547-0.567,3.261,0.227,3.828,1.775c0.567,1.547-0.227,3.261-1.775,3.828
						c-1.547,0.567-3.261-0.227-3.828-1.774C635.277,282.934,636.071,281.22,637.618,280.653z"/>
				</g>
				<g>
					<path style="fill:#F26363;" d="M656.663,271.981c1.547-0.567,3.261,0.227,3.828,1.774c0.567,1.547-0.227,3.261-1.774,3.828
						c-1.547,0.567-3.261-0.227-3.828-1.775C654.322,274.262,655.116,272.548,656.663,271.981z"/>
				</g>
			</g>
		</g>
		<g>
			<path style="fill:#FFFFFF;" d="M168.933,272.069c0,1.845-1.496,3.34-3.34,3.34s-3.34-1.496-3.34-3.34
				c0-1.845,1.495-3.34,3.34-3.34S168.933,270.224,168.933,272.069z"/>
			<path style="fill:#FFFFFF;" d="M193.383,244.379c0,1.488-1.206,2.694-2.694,2.694c-1.488,0-2.694-1.206-2.694-2.694
				c0-1.488,1.206-2.694,2.694-2.694C192.177,241.686,193.383,242.892,193.383,244.379z"/>
			<path style="fill:#FFFFFF;" d="M294.526,50.55c0,1.845-1.495,3.34-3.34,3.34s-3.341-1.496-3.341-3.34
				c0-1.845,1.496-3.34,3.341-3.34S294.526,48.705,294.526,50.55z"/>
			<path style="fill:#FFFFFF;" d="M318.976,22.86c0,1.488-1.206,2.694-2.694,2.694c-1.488,0-2.694-1.206-2.694-2.694
				c0-1.488,1.206-2.694,2.694-2.694C317.77,20.167,318.976,21.373,318.976,22.86z"/>
			<g>
				
					<line style="fill:none;stroke:#FFFFFF;stroke-width:2;stroke-linecap:round;stroke-linejoin:round;stroke-miterlimit:10;" x1="451.571" y1="171.914" x2="451.571" y2="189.689"/>
				
					<line style="fill:none;stroke:#FFFFFF;stroke-width:2;stroke-linecap:round;stroke-linejoin:round;stroke-miterlimit:10;" x1="457.855" y1="174.517" x2="445.287" y2="187.085"/>
				
					<line style="fill:none;stroke:#FFFFFF;stroke-width:2;stroke-linecap:round;stroke-linejoin:round;stroke-miterlimit:10;" x1="457.855" y1="187.085" x2="445.287" y2="174.517"/>
				
					<line style="fill:none;stroke:#FFFFFF;stroke-width:2;stroke-linecap:round;stroke-linejoin:round;stroke-miterlimit:10;" x1="460.458" y1="180.801" x2="442.684" y2="180.801"/>
			</g>
			<g>
				
					<line style="fill:none;stroke:#FFFFFF;stroke-width:2;stroke-linecap:round;stroke-linejoin:round;stroke-miterlimit:10;" x1="51.386" y1="43.039" x2="51.386" y2="60.813"/>
				
					<line style="fill:none;stroke:#FFFFFF;stroke-width:2;stroke-linecap:round;stroke-linejoin:round;stroke-miterlimit:10;" x1="57.671" y1="45.642" x2="45.102" y2="58.21"/>
				
					<line style="fill:none;stroke:#FFFFFF;stroke-width:2;stroke-linecap:round;stroke-linejoin:round;stroke-miterlimit:10;" x1="57.671" y1="58.21" x2="45.102" y2="45.642"/>
				
					<line style="fill:none;stroke:#FFFFFF;stroke-width:2;stroke-linecap:round;stroke-linejoin:round;stroke-miterlimit:10;" x1="60.274" y1="51.926" x2="42.499" y2="51.926"/>
			</g>
			<g>
				
					<line style="fill:none;stroke:#FFFFFF;stroke-width:2;stroke-linecap:round;stroke-linejoin:round;stroke-miterlimit:10;" x1="530.221" y1="440.183" x2="530.221" y2="457.958"/>
				
					<line style="fill:none;stroke:#FFFFFF;stroke-width:2;stroke-linecap:round;stroke-linejoin:round;stroke-miterlimit:10;" x1="536.505" y1="442.786" x2="523.936" y2="455.355"/>
				
					<line style="fill:none;stroke:#FFFFFF;stroke-width:2;stroke-linecap:round;stroke-linejoin:round;stroke-miterlimit:10;" x1="536.505" y1="455.355" x2="523.936" y2="442.786"/>
				
					<line style="fill:none;stroke:#FFFFFF;stroke-width:2;stroke-linecap:round;stroke-linejoin:round;stroke-miterlimit:10;" x1="539.108" y1="449.071" x2="521.333" y2="449.071"/>
			</g>
			<path style="fill:#FFFFFF;" d="M566.575,372.628c0,1.845-1.496,3.34-3.341,3.34s-3.34-1.496-3.34-3.34
				c0-1.845,1.495-3.34,3.34-3.34S566.575,370.783,566.575,372.628z"/>
			<path style="fill:#FFFFFF;" d="M605.082,416.764c0,1.488-1.206,2.693-2.694,2.693s-2.693-1.206-2.693-2.693
				c0-1.488,1.206-2.694,2.693-2.694S605.082,415.277,605.082,416.764z"/>
			<g>
				
					<line style="fill:none;stroke:#FFFFFF;stroke-width:2.3496;stroke-linecap:round;stroke-linejoin:round;stroke-miterlimit:10;" x1="151.086" y1="211.631" x2="151.086" y2="243.368"/>
				
					<line style="fill:none;stroke:#FFFFFF;stroke-width:2.3496;stroke-linecap:round;stroke-linejoin:round;stroke-miterlimit:10;" x1="162.307" y1="216.279" x2="139.865" y2="238.72"/>
				
					<line style="fill:none;stroke:#FFFFFF;stroke-width:2.3496;stroke-linecap:round;stroke-linejoin:round;stroke-miterlimit:10;" x1="162.307" y1="238.72" x2="139.865" y2="216.279"/>
				
					<line style="fill:none;stroke:#FFFFFF;stroke-width:2.3496;stroke-linecap:round;stroke-linejoin:round;stroke-miterlimit:10;" x1="166.955" y1="227.499" x2="135.217" y2="227.499"/>
			</g>
			<g>
				
					<line style="fill:none;stroke:#FFFFFF;stroke-width:2.3496;stroke-linecap:round;stroke-linejoin:round;stroke-miterlimit:10;" x1="588.191" y1="288.767" x2="588.191" y2="320.504"/>
				
					<line style="fill:none;stroke:#FFFFFF;stroke-width:2.3496;stroke-linecap:round;stroke-linejoin:round;stroke-miterlimit:10;" x1="599.411" y1="293.415" x2="576.97" y2="315.856"/>
				
					<line style="fill:none;stroke:#FFFFFF;stroke-width:2.3496;stroke-linecap:round;stroke-linejoin:round;stroke-miterlimit:10;" x1="599.411" y1="315.856" x2="576.97" y2="293.415"/>
				
					<line style="fill:none;stroke:#FFFFFF;stroke-width:2.3496;stroke-linecap:round;stroke-linejoin:round;stroke-miterlimit:10;" x1="604.059" y1="304.635" x2="572.322" y2="304.635"/>
			</g>
			<path style="fill:#FFFFFF;" d="M330.843,52.801c0,1.488-1.206,2.694-2.693,2.694c-1.488,0-2.694-1.206-2.694-2.694
				s1.206-2.694,2.694-2.694C329.637,50.108,330.843,51.314,330.843,52.801z"/>
			<g>
				
					<line style="fill:none;stroke:#FFFFFF;stroke-width:2;stroke-linecap:round;stroke-linejoin:round;stroke-miterlimit:10;" x1="223.068" y1="344.898" x2="223.068" y2="362.673"/>
				
					<line style="fill:none;stroke:#FFFFFF;stroke-width:2;stroke-linecap:round;stroke-linejoin:round;stroke-miterlimit:10;" x1="229.352" y1="347.501" x2="216.784" y2="360.07"/>
				
					<line style="fill:none;stroke:#FFFFFF;stroke-width:2;stroke-linecap:round;stroke-linejoin:round;stroke-miterlimit:10;" x1="229.352" y1="360.07" x2="216.784" y2="347.501"/>
				
					<line style="fill:none;stroke:#FFFFFF;stroke-width:2;stroke-linecap:round;stroke-linejoin:round;stroke-miterlimit:10;" x1="231.955" y1="353.786" x2="214.18" y2="353.786"/>
			</g>
			<path style="fill:#FFFFFF;" d="M469.454,302.722c0,1.845-1.496,3.341-3.34,3.341c-1.845,0-3.341-1.496-3.341-3.341
				c0-1.845,1.496-3.34,3.341-3.34C467.958,299.382,469.454,300.878,469.454,302.722z"/>
			<path style="fill:#FFFFFF;" d="M307.43,230.538c0,1.488-1.206,2.694-2.694,2.694c-1.488,0-2.694-1.206-2.694-2.694
				c0-1.488,1.206-2.693,2.694-2.693C306.224,227.844,307.43,229.05,307.43,230.538z"/>
			<path style="fill:#FFFFFF;" d="M376.921,328.049c0,1.488-1.206,2.694-2.694,2.694c-1.488,0-2.694-1.206-2.694-2.694
				c0-1.488,1.206-2.694,2.694-2.694C375.715,325.356,376.921,326.562,376.921,328.049z"/>
			<path style="fill:#FFFFFF;" d="M147.368,54.359c0,1.845-1.496,3.34-3.34,3.34c-1.845,0-3.34-1.496-3.34-3.34
				c0-1.845,1.496-3.34,3.34-3.34C145.873,51.018,147.368,52.514,147.368,54.359z"/>
			<path style="fill:#FFFFFF;" d="M706.547,459.326c0,1.845-1.496,3.34-3.341,3.34s-3.341-1.496-3.341-3.34
				c0-1.845,1.496-3.34,3.341-3.34S706.547,457.481,706.547,459.326z"/>
		</g>
	</g>
</g>
</svg>
